<svg id="Capa_1" enable-background="new 0 0 512 512" height="512" viewBox="0 0 512 512" width="512" xmlns="http://www.w3.org/2000/svg"><g><path d="m437 268.833-30 42.834 30 42.833h30v-85.667z" fill="#ff5a47"/><path d="m377 268.833h60v85.667h-60z" fill="#fe8047"/><path d="m437 153.167-30 42.833 30 42.833h30v-85.666z" fill="#a4d43b"/><path d="m377 153.167h60v85.667h-60z" fill="#cce332"/><path d="m437 37.5-30 42.833 30 42.834h30v-85.667z" fill="#fcc023"/><path d="m377 37.5h60v85.667h-60z" fill="#fcd72b"/><path d="m90 7.5 120 422h-165v-377c0-24.85 20.15-45 45-45z" fill="#0f4c81"/><path d="m407 7.5v377l-120 15 90-392z" fill="#2d6aab"/><path d="m377 7.5v392h-287v-392h212l22.5 30 22.5-30z" fill="#4b88d5"/><path d="m407 474.5v30h-30l-30-60z" fill="#0f4c81"/><path d="m407 384.5v30l-60 30 30-60z" fill="#0f4c81"/><path d="m90 384.5c-24.85 0-45 20.15-45 45v30c0 24.85 20.15 45 45 45h212l22.5-15 22.5 15h30v-120z" fill="#2d6aab"/><path d="m377 414.5h30c-8.29 8.29-12.44 19.14-12.44 30l-60 15z" fill="#fff7ba"/><path d="m407 474.5h-30l-42.44-30h60c0 10.86 4.15 21.71 12.44 30z" fill="#fff04a"/><path d="m377 474.5h-287c-8.28 0-15-6.72-15-15v-15l15-15h259.56l15 15c0 10.86 4.15 21.71 12.44 30z" fill="#fff7ba"/><path d="m90 414.5h287c-8.29 8.29-12.44 19.14-12.44 30h-289.56v-15c0-8.28 6.72-15 15-15z" fill="#fff"/><path d="m302 384.5v120h45v-120l-22.5-30z" fill="#404242"/><path d="m302 7.5h45v377h-45z" fill="#565959"/><path d="m467 130.667c4.142 0 7.5-3.357 7.5-7.5v-85.667c0-4.143-3.358-7.5-7.5-7.5h-52.5v-22.5c0-4.143-3.358-7.5-7.5-7.5h-317c-28.949 0-52.5 23.552-52.5 52.5v407c0 28.948 23.551 52.5 52.5 52.5h317c4.142 0 7.5-3.357 7.5-7.5v-30c0-1.989-.79-3.896-2.197-5.304-13.618-13.617-13.618-35.775 0-49.393 1.407-1.407 2.197-3.314 2.197-5.304v-52.499h52.5c4.142 0 7.5-3.357 7.5-7.5v-85.667c0-4.143-3.358-7.5-7.5-7.5h-52.5v-15h52.5c4.142 0 7.5-3.357 7.5-7.5v-85.666c0-4.143-3.358-7.5-7.5-7.5h-52.5v-15zm-7.5-85.667v70.667h-45v-70.667zm-60 332h-45v-362h45zm-105 60h-212v-7.5c0-4.136 3.364-7.5 7.5-7.5h204.5zm-212 15h212v15h-204.5c-4.136 0-7.5-3.364-7.5-7.5zm227-437h30v482h-30zm45 437h33.131c.788 5.255 2.403 10.305 4.78 15h-37.911zm33.131-15h-33.131v-15h37.912c-2.378 4.695-3.993 9.745-4.781 15zm-33.131-30v-15h45v15zm-302-354.5c0-18.109 12.905-33.262 30-36.747v361.781c-11.673 1.677-22.118 7.208-30 15.259zm0 407v-30c0-20.678 16.822-37.5 37.5-37.5 4.142 0 7.5-3.357 7.5-7.5v-369.5h197v362h-174.5c-4.142 0-7.5 3.357-7.5 7.5s3.358 7.5 7.5 7.5h174.5v15h-204.5c-12.407 0-22.5 10.094-22.5 22.5v30c0 12.406 10.093 22.5 22.5 22.5h204.5v15h-204.5c-20.678 0-37.5-16.822-37.5-37.5zm302 37.5v-15h45v15zm105-220.667v70.667h-45v-70.667zm0-115.666v70.666h-45v-70.666z"/></g></svg>