<svg id="Capa_1" enable-background="new 0 0 510 510" height="512" viewBox="0 0 510 510" width="512" xmlns="http://www.w3.org/2000/svg" xmlns:xlink="http://www.w3.org/1999/xlink"><linearGradient id="lg1"><stop offset="0" stop-color="#b5dbff"/><stop offset="1" stop-color="#48b2e3"/></linearGradient><linearGradient id="SVGID_1_" gradientTransform="matrix(.846 .533 -.533 .846 -2943.708 -1028.61)" gradientUnits="userSpaceOnUse" x1="3409.739" x2="3424.082" xlink:href="#lg1" y1="-909.755" y2="-909.755"/><linearGradient id="SVGID_2_" gradientTransform="matrix(.846 .533 -.533 .846 -2943.708 -1028.61)" gradientUnits="userSpaceOnUse" x1="3408.544" x2="3426.434" xlink:href="#lg1" y1="-612.266" y2="-612.266"/><linearGradient id="SVGID_3_" gradientTransform="matrix(.846 .533 -.533 .846 -2943.708 -1028.61)" gradientUnits="userSpaceOnUse" x1="3449.989" x2="3410.329" y1="-695.89" y2="-748.362"><stop offset="0" stop-color="#b5dbff" stop-opacity="0"/><stop offset=".1734" stop-color="#8fc5e9" stop-opacity=".173"/><stop offset=".4541" stop-color="#56a4c8" stop-opacity=".454"/><stop offset=".6955" stop-color="#2d8db1" stop-opacity=".696"/><stop offset=".8853" stop-color="#147ea2" stop-opacity=".885"/><stop offset="1" stop-color="#0b799d"/></linearGradient><linearGradient id="lg2"><stop offset="0" stop-color="#ff637b"/><stop offset="1" stop-color="#e63950"/></linearGradient><linearGradient id="SVGID_4_" gradientTransform="matrix(.846 .533 -.533 .846 -2943.708 -1028.61)" gradientUnits="userSpaceOnUse" x1="3283.154" x2="3312.218" xlink:href="#lg2" y1="-837.333" y2="-823.11"/><linearGradient id="SVGID_5_" gradientTransform="matrix(.846 .533 -.533 .846 -2943.708 -1028.61)" gradientUnits="userSpaceOnUse" x1="3515.551" x2="3579.55" xlink:href="#lg2" y1="-812.843" y2="-817.017"/><linearGradient id="lg3"><stop offset="0" stop-color="#edf5ff"/><stop offset="1" stop-color="#d5e8fe"/></linearGradient><linearGradient id="SVGID_6_" gradientTransform="matrix(.846 .533 -.533 .846 -2943.708 -1028.61)" gradientUnits="userSpaceOnUse" x1="3455.556" x2="3511.207" xlink:href="#lg3" y1="-811.566" y2="-801.827"/><linearGradient id="SVGID_7_" gradientTransform="matrix(.846 .533 -.533 .846 -2943.708 -1028.61)" gradientUnits="userSpaceOnUse" x1="3329.825" x2="3387.952" xlink:href="#lg3" y1="-824.294" y2="-803.27"/><linearGradient id="SVGID_8_" gradientTransform="matrix(.846 .533 -.533 .846 -2943.708 -1028.61)" gradientUnits="userSpaceOnUse" x1="3388.677" x2="3440.002" xlink:href="#lg2" y1="-817.854" y2="-801.777"/><linearGradient id="SVGID_9_" gradientUnits="userSpaceOnUse" x1="229.026" x2="229.026" y1="146.793" y2="337.322"><stop offset="0" stop-color="#ffda2d"/><stop offset="1" stop-color="#fdbf00"/></linearGradient><linearGradient id="lg4"><stop offset="0" stop-color="#c59b6d"/><stop offset="1" stop-color="#a57c52"/></linearGradient><linearGradient id="SVGID_10_" gradientTransform="matrix(-.707 .707 .707 .707 -91.141 52.67)" gradientUnits="userSpaceOnUse" x1="67.227" x2="67.227" xlink:href="#lg4" y1="349.197" y2="404.255"/><linearGradient id="lg5"><stop offset="0" stop-color="#8c6239" stop-opacity="0"/><stop offset=".5198" stop-color="#734a23" stop-opacity=".52"/><stop offset="1" stop-color="#603813"/></linearGradient><linearGradient id="SVGID_11_" gradientUnits="userSpaceOnUse" x1="126.132" x2="149.254" xlink:href="#lg5" y1="372.685" y2="349.563"/><linearGradient id="SVGID_12_" gradientTransform="matrix(.707 .707 -.707 .707 382.487 52.67)" gradientUnits="userSpaceOnUse" x1="263.991" x2="263.991" xlink:href="#lg4" y1="152.433" y2="207.491"/><linearGradient id="SVGID_13_" gradientTransform="matrix(-1 0 0 1 616.658 0)" gradientUnits="userSpaceOnUse" x1="173.177" x2="196.299" xlink:href="#lg5" y1="372.685" y2="349.563"/><linearGradient id="SVGID_14_" gradientUnits="userSpaceOnUse" x1="288.228" x2="288.228" xlink:href="#lg4" y1="304.012" y2="359.07"/><linearGradient id="SVGID_15_" gradientTransform="matrix(-.707 -.707 -.707 .707 525.441 214.991)" gradientUnits="userSpaceOnUse" x1="270.843" x2="270.843" xlink:href="#lg4" y1="318.076" y2="373.134"/><linearGradient id="SVGID_16_" gradientUnits="userSpaceOnUse" x1="357.494" x2="375.94" y1="415.882" y2="485.406"><stop offset="0" stop-color="#ffdecf"/><stop offset=".3591" stop-color="#fdc5b2"/><stop offset=".7611" stop-color="#fbae98"/><stop offset="1" stop-color="#faa68e"/></linearGradient><linearGradient id="SVGID_17_" gradientUnits="userSpaceOnUse" x1="70.107" x2="335.761" y1="378.524" y2="538.397"><stop offset="0" stop-color="#ffdecf"/><stop offset="1" stop-color="#faa68e"/></linearGradient><linearGradient id="SVGID_18_" gradientUnits="userSpaceOnUse" x1="248.909" x2="163.324" y1="406.522" y2="318.561"><stop offset="0" stop-color="#faa68e" stop-opacity="0"/><stop offset="1" stop-color="#faa68e"/></linearGradient><linearGradient id="SVGID_19_" gradientUnits="userSpaceOnUse" x1="255" x2="255" y1="476.288" y2="504.959"><stop offset="0" stop-color="#faa68e" stop-opacity="0"/><stop offset="1" stop-color="#d07972"/></linearGradient><g><g><path d="m433.567 35.801-18.316-11.53 6.648-10.561c3.06-4.861 9.482-6.322 14.343-3.262l.711.448c4.861 3.06 6.322 9.482 3.262 14.343z" fill="url(#SVGID_1_)"/><path d="m202.593 407.49-22.765-14.33 161.551-256.466 22.764 14.33z" fill="url(#SVGID_2_)"/><path d="m319.205 171.921 8.435 37.094 36.503-57.991-22.764-14.33z" fill="url(#SVGID_3_)"/><g><path d="m425.891 27.681c-74.25-46.738-169.543-32.523-227.281 29.32-12.27 13.142-9.633 34.179 5.583 43.757 12.425 7.821 28.782 4.966 37.763-6.649 53.581-69.291 132.134-99.036 183.935-66.428z" fill="url(#SVGID_4_)"/><path d="m425.891 27.681c51.802 32.607 58.95 116.298 19.643 194.574-6.589 13.121-2.09 29.104 10.335 36.925 15.216 9.578 35.325 2.858 41.868-13.888 30.795-78.804 2.404-170.874-71.846-217.611z" fill="url(#SVGID_5_)"/><path d="m425.891 27.681c19.43 12.23 2.482 75.083-37.841 147.219-9.631 17.229-4.151 38.977 12.554 49.492l6.64 4.179c14.442 9.091 33.672 3.614 40.97-11.812 36.269-76.664 28.269-157.233-22.323-189.078z" fill="url(#SVGID_6_)"/><path d="m425.891 27.681c-50.591-31.846-126.697-4.219-180.138 61.636-10.753 13.251-7.376 32.958 7.066 42.049l6.64 4.179c16.705 10.515 38.684 6.052 50.054-10.083 47.605-67.551 96.949-110.011 116.378-97.781z" fill="url(#SVGID_7_)"/><path d="m425.891 27.681c-18.678-11.757-65.003 27.029-110.851 90.061-14.262 19.608-8.858 47.215 11.662 60.131l6.659 4.192c20.52 12.916 47.749 5.851 59.261-15.488 37.007-68.597 51.948-127.139 33.269-138.896z" fill="url(#SVGID_8_)"/></g></g><g><path d="m409.156 290.809h-224.4c-7.535 0-14.762-2.993-20.09-8.322l-101.854-101.854c-7.955-7.955-20.853-7.955-28.808 0-7.955 7.955-7.955 20.853 0 28.808l115.034 115.035c3.735 4.33 9.258 7.074 15.425 7.074h245.181c11.497 0 20.769-9.524 20.357-21.113-.392-11.039-9.799-19.628-20.845-19.628z" fill="url(#SVGID_9_)"/><path d="m113.878 416.995 64.232-64.232c8.852-8.852 8.852-23.204 0-32.057-8.852-8.852-23.204-8.852-32.057 0l-64.232 64.232c-8.852 8.852-8.852 23.204 0 32.057 8.853 8.852 23.205 8.852 32.057 0z" fill="url(#SVGID_10_)"/><path d="m97.838 368.922 32.057 32.057 48.216-48.216c8.852-8.852 8.852-23.204 0-32.057-8.852-8.852-23.204-8.852-32.057 0z" fill="url(#SVGID_11_)"/><path d="m455.734 416.995-64.232-64.232c-8.852-8.852-8.852-23.204 0-32.057 8.852-8.852 23.204-8.852 32.057 0l64.232 64.232c8.852 8.852 8.852 23.204 0 32.057-8.853 8.852-23.205 8.852-32.057 0z" fill="url(#SVGID_12_)"/><path d="m471.775 368.922-32.057 32.057-48.216-48.216c-8.852-8.852-8.852-23.204 0-32.057 8.852-8.852 23.204-8.852 32.057 0z" fill="url(#SVGID_13_)"/><path d="m424.645 357.402h-272.833c-12.519 0-22.667-10.149-22.667-22.667 0-12.519 10.149-22.667 22.667-22.667h272.832c12.519 0 22.667 10.149 22.667 22.667.001 12.518-10.147 22.667-22.666 22.667z" fill="url(#SVGID_14_)"/><path d="m6.639 221.521 129.241 129.241c8.852 8.852 23.204 8.852 32.057 0 8.852-8.852 8.852-23.204 0-32.057l-129.241-129.24c-8.852-8.852-23.204-8.852-32.057 0-8.852 8.852-8.852 23.204 0 32.056z" fill="url(#SVGID_15_)"/></g><path d="m510 486.744v-63.981c0-20.304-16.459-36.763-36.763-36.763h-67.517c-56.343 0-110.122 23.545-148.34 64.945l-33.047 35.799z" fill="url(#SVGID_16_)"/><g><path d="m17.013 397.622c84.465-20.453 174.806-11.136 251.415 25.927l12.021 5.816c54.523 26.378 115.894 40.223 178.299 40.223h27.996c12.844 0 23.256 9.047 23.256 20.206 0 11.159-10.412 20.206-23.256 20.206h-463.488c-12.844 0-23.256-9.047-23.256-20.206v-72.707c0-9.071 6.956-17.03 17.013-19.465z" fill="url(#SVGID_17_)"/><path d="m486.744 469.588h-27.996c-62.405 0-123.776-13.845-178.299-40.223l-12.022-5.816c-42.14-20.387-88.435-32.369-135.622-35.624-20.303-1.401-37.638 12.624-37.638 30.321 0 34.281 31.985 62.071 71.44 62.071h340.672c-3.909-6.381-11.634-10.729-20.535-10.729z" fill="url(#SVGID_18_)"/><path d="m0 489.794c0 11.16 10.412 20.206 23.256 20.206h463.489c12.844 0 23.256-9.046 23.256-20.206s-10.412-20.206-23.256-20.206h-27.996c-38.433 0-76.472-5.259-112.763-15.455h-345.986z" fill="url(#SVGID_19_)"/></g></g></svg>