<svg id="Layer_5" enable-background="new 0 0 64 64" height="512" viewBox="0 0 64 64" width="512" xmlns="http://www.w3.org/2000/svg"><g><g><g><path d="m41.87 51-1.07 4h-38.8v-34h10v4h-6v26z" fill="#b4dd7f"/></g><g><path d="m53.8 30.82c-.5-1.63-2-2.82-3.8-2.82v-3h-6v-4h10v9.73c-.07.02-.13.06-.2.09z" fill="#b4dd7f"/></g><g><path d="m41.51 48.49c.26.26.55.48.86.64l-.5 1.87h-35.87v-26h6v6h6 6 8 6 4.15c-.22.14-.44.31-.64.51-1.26 1.27-1.48 3.18-.69 4.69-1.63.5-2.82 2-2.82 3.8s1.19 3.3 2.82 3.8c-.79 1.51-.57 3.42.69 4.69z" fill="#f0d0b4"/></g><g><path d="m50 28c-1.8 0-3.3 1.19-3.8 2.82-.68-.36-1.45-.51-2.2-.44v-5.38h6z" fill="#f0d0b4"/></g><g><path d="m10 35h10v12h-10z" fill="#fcd770"/></g><g><path d="m18 17v14h-6v-6-4-2z" fill="#ccd1d9"/></g><g><path d="m44 25v5.38c-.65.04-1.28.25-1.85.62h-4.15v-14l6 2v2z" fill="#ccd1d9"/></g><g><path d="m34 15h-12-4v2 14h20v-14-2z" fill="#e6e9ed"/></g><g><path d="m24 23h8v8h-8z" fill="#aab2bd"/></g><g><path d="m33.65 10h-11.3c.81-2.33 3.04-4 5.65-4 1.66 0 3.16.67 4.24 1.76.63.62 1.12 1.39 1.41 2.24z" fill="#ccd1d9"/></g><g><path d="m34 12v3h-12v-3c0-.7.12-1.37.35-2h11.3c.23.63.35 1.3.35 2z" fill="#ccd1d9"/></g><g><path d="m42.37 49.13c1.18.67 2.63.68 3.83.05.34 1.11 1.14 2.02 2.19 2.47l-2.39 8.35-2-4-4 2 .8-3 1.07-4z" fill="#fcd770"/></g><g><path d="m57.63 49.13 2.37 8.87-4-2-2 4-2.39-8.35c1.05-.45 1.85-1.36 2.19-2.47 1.2.63 2.65.62 3.83-.05z" fill="#fcd770"/></g><g><path d="m51.61 51.65c-.49.23-1.04.35-1.61.35s-1.12-.12-1.61-.35c-1.05-.45-1.85-1.36-2.19-2.47-1.2.63-2.65.62-3.83-.05-.31-.16-.6-.38-.86-.64-1.26-1.27-1.48-3.18-.69-4.69-1.63-.5-2.82-2-2.82-3.8s1.19-3.3 2.82-3.8c-.79-1.51-.57-3.42.69-4.69.2-.2.42-.37.64-.51.57-.37 1.2-.58 1.85-.62.75-.07 1.52.08 2.2.44.5-1.63 2-2.82 3.8-2.82s3.3 1.19 3.8 2.82c.07-.03.13-.07.2-.09 1.47-.68 3.27-.43 4.49.78 1.26 1.27 1.48 3.18.69 4.69 1.63.5 2.82 2 2.82 3.8s-1.19 3.3-2.82 3.8c.79 1.51.57 3.42-.69 4.69-.26.26-.55.48-.86.64-1.18.67-2.63.68-3.83.05-.34 1.11-1.14 2.02-2.19 2.47z" fill="#fc6e51"/></g><g><circle cx="50" cy="40" fill="#ff826e" r="8"/></g></g><g><path d="m53 40h2c0-2.757-2.243-5-5-5v2c1.654 0 3 1.346 3 3z"/><path d="m59.192 49.192c1.293-1.293 1.751-3.146 1.27-4.858 1.552-.872 2.538-2.506 2.538-4.334s-.986-3.462-2.538-4.334c.481-1.713.023-3.565-1.27-4.858-1.127-1.127-2.68-1.619-4.192-1.408v-9.4h-10v-1.721l-6-2v-2.279h-4v-2c0-3.519-2.613-6.432-6-6.92v-4.08h-2v4.08c-3.387.488-6 3.401-6 6.92v2h-4v2.279l-6 2v1.721h-10v36h38.498l-1.036 3.887 5.091-2.545 2.703 5.405 2.812-9.844c.304.057.613.097.932.097s.628-.04.932-.098l2.812 9.844 2.703-5.405 5.091 2.545-2.756-10.336c.141-.112.28-.228.41-.358zm-19.258-17.192c-.594 1.12-.744 2.428-.396 3.666-1.552.872-2.538 2.506-2.538 4.334s.986 3.462 2.538 4.334c-.481 1.713-.023 3.565 1.27 4.858.13.13.27.245.41.359l-.12.449h-34.098v-24h4v6zm-8.934-2h-6v-6h6zm19-1c1.31 0 2.454.851 2.848 2.117l.124.398c-.932-.328-1.93-.515-2.972-.515s-2.04.187-2.971.515l.124-.398c.393-1.266 1.537-2.117 2.847-2.117zm-1-1.888c-1.41.288-2.626 1.165-3.334 2.425-.22-.062-.443-.107-.666-.138v-3.399h4zm-3.268 4.593.371.195c-1.833.885-3.317 2.37-4.203 4.203l-.195-.371c-.617-1.173-.41-2.584.517-3.51.926-.926 2.337-1.135 3.51-.517zm-4.217 11.266-.398-.124c-1.266-.393-2.117-1.537-2.117-2.847s.851-2.454 2.117-2.848l.398-.124c-.328.932-.515 1.93-.515 2.972s.187 2.04.515 2.971zm.707 4.807c-.926-.926-1.134-2.337-.517-3.51l.195-.371c.885 1.833 2.37 3.317 4.203 4.203l-.371.195c-1.174.617-2.585.409-3.51-.517zm.778-7.778c0-3.86 3.14-7 7-7s7 3.14 7 7-3.14 7-7 7-7-3.14-7-7zm15.1 3.897.195.371c.617 1.173.41 2.584-.517 3.51-.926.926-2.336 1.134-3.51.517l-.371-.195c1.833-.886 3.317-2.37 4.203-4.203zm2.9-3.897c0 1.31-.851 2.454-2.117 2.848l-.398.124c.328-.932.515-1.93.515-2.972s-.187-2.04-.515-2.971l.398.124c1.266.393 2.117 1.537 2.117 2.847zm-3.222-7.778c.926.926 1.134 2.337.517 3.51l-.195.371c-.885-1.833-2.37-3.317-4.203-4.203l.371-.195c1.173-.619 2.584-.409 3.51.517zm-4.778-10.222v6.011c-.584-.443-1.265-.749-2-.899v-3.112h-6v-2zm-10-2.279v9.812c-.393.108-.775.262-1.135.467h-2.865v-11.612zm-15-12.721c1.627 0 3.061.793 3.974 2h-7.949c.914-1.207 2.348-2 3.975-2zm-5 5c0-.342.035-.677.101-1h9.798c.066.323.101.658.101 1v2h-10zm-2 4h2 10 2 2v14h-4v-8h-10v8h-4v-14zm-8 3.721 4-1.333v11.612h-4zm-10 34.279v-32h8v2h-6v28h35.565l-.533 2zm42.745 3.253-1.297-2.595-2.909 1.455 1.502-5.634c.85.226 1.756.227 2.626-.017.382.679.916 1.242 1.542 1.669zm1.407-8.37-.124-.398c.932.328 1.93.515 2.972.515s2.04-.187 2.971-.515l-.124.398c-.393 1.266-1.537 2.117-2.847 2.117s-2.454-.851-2.848-2.117zm11.31 7.23-2.909-1.455-1.297 2.595-1.463-5.122c.626-.427 1.16-.989 1.542-1.668.869.243 1.775.243 2.625.016z"/><path d="m29 18h2v2h-2z"/><path d="m25 18h2v2h-2z"/><path d="m21 18h2v2h-2z"/><path d="m33 18h2v2h-2z"/><path d="m9 48h12v-14h-12zm2-12h8v10h-8z"/><path d="m23 34h2v2h-2z"/><path d="m27 34h8v2h-8z"/><path d="m23 38h12v2h-12z"/><path d="m23 42h12v2h-12z"/><path d="m33 46h2v2h-2z"/><path d="m23 46h8v2h-8z"/></g></g></svg>