<?xml version="1.0" encoding="iso-8859-1"?>
<!-- Generator: Adobe Illustrator 19.0.0, SVG Export Plug-In . SVG Version: 6.00 Build 0)  -->
<svg version="1.1" id="Layer_1" xmlns="http://www.w3.org/2000/svg" xmlns:xlink="http://www.w3.org/1999/xlink" x="0px" y="0px"
	 viewBox="0 0 512.003 512.003" style="enable-background:new 0 0 512.003 512.003;" xml:space="preserve">
<g>
	<path style="fill:#C03000;" d="M98.864,176.211c-0.532,0.118-0.946,0.237-1.359,0.384c-2.719,1.181-5.141,3.014-7.476,4.787
		l-1.625,1.181c-0.326,0.237-0.679,0.355-1.094,0.355c-0.029,0-0.326,0.266-0.295,0.295c0,0.029-0.266,0.266-0.237,0.266
		c-1.005,1.152-1.714,2.098-2.275,3.161c-0.384,0.65-0.71,1.3-1.034,1.98c-0.473,1.152-0.768,1.98-1.005,2.777
		c-0.266,0.916-0.444,1.891-0.561,2.837c0,0.295,0,1.123,0.059,1.92c0.237,1.536,0.621,3.043,1.27,4.905
		c0.413,0.946,0.886,1.832,1.448,2.69c0.591,0.679,1.181,1.241,1.862,1.802c1.034,0.65,2.039,1.152,3.074,1.654
		c1.92,0.679,3.782,1.152,5.703,1.507c1.094,0.148,1.714,0.177,2.393,0.207c0.413-0.029,0.857-0.059,1.3-0.059
		c0.679-0.118,1.33-0.266,1.98-0.444l1.181-0.413c1.3-0.591,2.512-1.241,3.694-2.038c0.561-0.443,1.034-0.886,1.507-1.418
		c0.739-1.094,1.359-2.187,1.951-3.369c0.444-1.181,0.797-2.335,1.064-3.605c0.089-0.65,0.207-1.3,0.355-1.92
		c0.355-2.955,0.65-5.851,0.413-8.658c-0.089-0.65-0.237-1.33-0.444-1.98c-0.148-0.473-0.295-0.946-0.502-1.389
		c-0.413-0.797-0.857-1.507-1.359-2.216c-0.561-0.65-1.181-1.212-1.832-1.773c-1.418-0.916-2.837-1.773-4.284-2.571
		c-0.975-0.384-1.951-0.65-3.014-0.886c-0.029-0.029-0.029-0.029-0.029-0.029C99.424,176.151,99.159,176.18,98.864,176.211
		L98.864,176.211z"/>
	<path style="fill:#C03000;" d="M74.514,323.84c-0.65,0.177-1.27,0.355-1.891,0.591c-1.596,0.768-3.043,1.685-4.492,2.719
		c-2.069,1.685-3.634,3.192-4.935,4.757c-0.591,0.916-1.094,1.832-1.536,2.808c-0.591,1.625-1.064,3.25-1.389,4.994
		c-0.059,0.71-0.059,1.359-0.029,1.98h-0.059c0.089,0.916,0.295,1.862,0.621,2.837l0.326,0.857c0.473,1.005,1.005,1.891,1.596,2.807
		c0.828,1.005,1.684,1.891,2.659,2.748c0.797,0.532,1.596,0.975,2.453,1.418c1.152,0.413,2.304,0.68,3.545,0.916
		c0.946,0.089,1.862,0.148,2.837,0.148c0.591,0,1.212,0,1.832-0.06c1.684-0.266,3.458-0.768,5.467-1.507
		c0.621-0.326,1.212-0.679,1.773-1.063c0.739-0.621,1.359-1.27,1.98-1.98c0.768-1.123,1.418-2.246,2.038-3.458
		c0.739-1.891,1.212-3.694,1.478-5.467l0.148-1.005l0.148-1.034l-0.089,0.326c0.118-1.27,0.118-2.571,0-3.931
		c-0.326-1.596-0.739-3.074-1.27-4.581c-0.384-0.828-0.797-1.596-1.27-2.364l-0.916-0.916c-0.473-0.326-0.975-0.65-1.507-0.916
		c-0.295-0.148-0.591-0.295-0.886-0.413c-0.768-0.266-1.507-0.502-2.304-0.68c-1.27-0.118-2.512-0.177-3.753-0.177h-1.094h-0.029
		c-0.561,0-1.005-0.118-1.389-0.355l-0.029-0.029C74.544,323.81,74.544,323.81,74.514,323.84L74.514,323.84z"/>
	<path style="fill:#C03000;" d="M72.978,450.283c-0.679,0.413-1.3,0.828-1.92,1.27c-1.596,1.241-3.103,2.748-4.58,4.521
		c-1.27,1.743-2.246,3.369-3.043,5.083c-0.532,1.507-0.946,3.014-1.241,4.61c-0.059,0.886-0.029,1.714,0.029,2.571
		c0.266,1.359,0.621,2.601,1.094,3.842c0.65,1.389,1.359,2.659,2.216,3.9c0.65,0.797,1.064,1.27,1.536,1.714
		c0.444,0.444,0.916,0.886,1.418,1.3c0.029,0.029,0.06,0.06,0.06,0.06l0.029,0.029c1.714,1.212,3.161,2.039,4.699,2.69
		c1.625,0.591,3.28,1.094,5.052,1.418c0.473,0.06,1.389,0.177,2.275,0.177c1.005,0,1.536-0.06,2.098-0.118
		c1.359-0.295,2.571-0.65,3.753-1.123c1.181-0.561,2.246-1.212,3.25-1.92c0.916-0.739,1.684-1.507,2.423-2.364
		c0.946-1.478,1.743-2.955,2.423-4.551c0.413-1.123,0.71-2.275,0.975-3.458c0.207-2.63-0.059-5.112-0.326-7.447
		c-0.237-1.536-0.532-2.985-1.034-4.403c-0.473-0.886-1.005-1.714-1.567-2.512c-1.094-1.359-2.157-2.63-3.458-3.782
		c-0.444-0.295-0.857-0.532-1.33-0.768c-0.916-0.295-1.832-0.532-2.777-0.768c-1.654-0.177-3.28-0.237-4.935-0.237
		C77.735,450.017,75.342,450.164,72.978,450.283L72.978,450.283z"/>
	<path style="fill:#C03000;" d="M425.208,164.449c-2.068,0.532-4.078,1.064-6.087,1.832c-1.064,0.561-2.069,1.152-3.043,1.832
		c-1.181,0.975-2.216,1.98-3.161,3.103c-0.768,1.123-1.389,2.216-1.98,3.428c-0.502,1.241-0.886,2.482-1.181,3.782
		c-0.089,1.123-0.089,2.157-0.029,3.25c0.237,1.123,0.561,2.157,0.975,3.221c0.739,1.389,1.596,2.748,2.512,4.048
		c0.621,0.739,1.301,1.389,2.039,2.009c1.064,0.71,2.098,1.33,3.221,1.862c0.946,0.326,1.862,0.532,2.866,0.739h1.183
		c1.448,0,2.866-0.089,4.284-0.266c1.98-0.326,3.458-0.679,4.935-1.212c0.916-0.444,1.743-0.946,2.601-1.507
		c0.768-0.65,1.478-1.33,2.127-2.098c0.502-0.71,0.916-1.389,1.3-2.157c0.621-1.773,1.005-3.605,1.359-5.467
		c0.118-1.418,0.089-2.925-0.089-4.58l-0.118-0.857l-0.118-0.828c-0.177-1.241-0.266-1.803-0.413-2.305
		c-0.118-0.473-0.266-0.975-0.473-1.448c-0.266-0.502-0.561-1.005-0.916-1.507c-0.768-0.916-1.536-1.803-2.423-2.601
		c-0.355-0.207-0.68-0.384-1.034-0.562c-2.187-0.857-4.491-1.389-6.708-1.92c0,0-0.502-0.089-0.532-0.089
		C425.947,164.272,425.592,164.361,425.208,164.449L425.208,164.449z"/>
	<path style="fill:#C03000;" d="M451.153,297.157h-0.118c-0.857,0.029-1.714,0.089-2.541,0.148c-1.241,0.295-2.393,0.65-3.516,1.094
		c-2.098,0.946-4.018,2.039-5.792,3.339c-1.3,1.034-2.453,2.127-3.516,3.398c-0.679,1.034-1.3,2.038-1.802,3.161
		c-0.413,1.212-0.679,2.393-0.916,3.664c-0.089,1.064-0.089,2.039,0,3.103c0.266,1.181,0.591,2.304,1.034,3.398
		c0.326,0.65,0.68,1.212,1.094,1.802c0.532,0.591,1.064,1.123,1.654,1.596c1.094,0.739,2.157,1.389,3.28,1.98
		c2.157,0.797,4.373,1.418,6.856,1.862c1.005,0.089,2.038,0.148,3.043,0.148c1.094,0,2.186-0.06,3.25-0.177l-0.148-0.029
		c0.473,0,0.945-0.118,1.448-0.266c0.975-0.444,1.448-0.71,1.862-1.005c0.71-0.621,1.3-1.241,1.891-1.951
		c1.123-1.743,2.069-3.516,2.955-5.378c0.591-1.596,0.946-3.192,1.27-4.905c0.355-2.601,0.502-5.201,0.384-7.653
		c-0.059-0.413-0.177-0.768-0.295-1.123c-0.384-0.886-0.828-1.743-1.3-2.571c-0.295-0.355-0.532-0.591-0.828-0.828
		c-0.355-0.266-0.768-0.502-1.181-0.679c-2.275-0.857-4.668-1.389-7.003-1.891l-1.034-0.237
		C451.153,297.157,451.153,297.157,451.153,297.157L451.153,297.157z"/>
	<path style="fill:#C03000;" d="M439.392,430.927c-1.389,0.326-2.748,0.768-4.137,1.27c-1.478,0.71-2.837,1.448-4.166,2.393
		c-0.797,0.68-1.536,1.389-2.216,2.187c-0.621,0.886-1.123,1.743-1.625,2.688c-0.502,1.33-0.886,2.659-1.183,4.078
		c-0.118,1.181-0.118,2.304-0.059,3.487c0.177,0.768,0.384,1.448,0.65,2.127c0.532,1.064,1.181,2.039,1.891,3.014
		c1.123,1.389,2.305,2.601,3.634,3.753c0.916,0.621,1.773,1.152,2.719,1.596c0.768,0.237,1.507,0.444,2.305,0.621
		c0.621,0.029,1.27,0.06,1.891,0.06c0.797,0,1.596-0.029,2.393-0.089c2.009-0.326,3.989-0.857,6.087-1.654
		c0.828-0.413,1.565-0.857,2.335-1.359c0.621-0.532,1.152-1.094,1.685-1.714c1.094-1.567,2.038-3.28,2.866-5.23
		c0.502-1.359,0.975-2.748,1.212-4.226c0.06-1.064,0.029-2.127-0.118-3.192c-0.266-1.625-0.65-3.074-1.181-4.432
		c-0.266-0.473-0.532-0.916-0.857-1.389c-0.237-0.266-0.502-0.532-0.797-0.797c-0.532-0.326-1.034-0.621-1.567-0.886
		c-1.802-0.65-3.605-1.034-5.496-1.389c-1.478-0.178-2.955-0.266-4.433-0.295c-0.621,0-1.241-0.207-1.743-0.591
		c-0.029,0-0.029-0.029-0.06-0.029C439.422,430.927,439.422,430.927,439.392,430.927L439.392,430.927z"/>
</g>
<path style="fill:#5FAD29;" d="M339.426,87.266c-0.029,0.029-0.029,0.029-0.029,0.06l-0.06,0.059
	c-1.625,3.221-3.192,6.117-5.289,8.539c-1.005,1.181-2.098,2.069-3.369,2.777c-0.797,0.413-1.685,0.71-2.896,0.857
	c-0.413,0.118-0.828,0.148-1.212,0.148l-1.27-0.118l-1.212-0.326c-0.768-0.295-1.565-0.591-2.305-1.005
	c-2.098-1.212-3.929-2.837-5.703-4.403l-0.857-0.739c-2.009,3.103-3.516,6.264-5.171,10.106l-0.65,1.536
	c-1.152,2.866-2.364,5.822-4.315,8.244c-1.034,1.241-1.92,2.098-2.896,2.808c-0.532,0.443-1.123,0.768-1.625,1.034
	c-0.532,0.237-1.094,0.443-1.654,0.679c-1.536,0.444-2.985,0.768-4.344,0.768c-0.326,0-0.621,0-0.946-0.059l-0.797-0.089
	c-0.946-0.089-1.92-0.177-2.807-0.473c-2.719-0.886-4.935-2.098-6.737-3.694c-1.862-1.625-3.398-3.545-4.639-5.851
	c-1.418-2.659-2.571-5.438-3.694-8.215l-0.384-0.886c-0.621-1.448-1.241-2.601-2.009-3.634c-0.207-0.266-0.444-0.502-0.71-0.71
	c-0.029,0-0.06,0-0.148,0s-0.207,0-0.355,0c-0.148,0-0.295,0-0.295,0c-0.502,0.473-0.975,0.946-1.418,1.478
	c-1.181,1.654-2.216,3.427-3.132,5.438c-1.389,3.427-2.187,7.063-2.985,10.55l-0.502,2.246l-0.857,3.545l-0.828,3.516
	c-0.473,2.009-0.945,4.018-1.565,5.998c-0.532,1.714-1.123,3.369-1.803,5.054c-0.562,1.33-0.946,2.364-1.478,3.28
	c-1.241,2.157-2.955,4.905-5.525,6.856c-2.069,1.596-4.373,2.63-6.885,3.043c-0.857,0.148-1.714,0.237-2.541,0.237
	c-0.679,0-1.359-0.059-2.069-0.148c-1.802-0.207-3.369-0.739-4.817-1.3c-2.571-0.975-4.934-2.423-6.797-4.196
	c-2.335-2.187-4.166-4.639-5.525-7.298c-1.152-2.335-2.453-5.141-3.043-8.038c-0.975-4.344-1.3-8.746-1.478-13.977l-0.118-2.453
	c-0.089-2.482-0.177-4.935-0.413-7.358c-0.207-0.828-0.413-1.567-0.65-2.335c-1.507,0.118-2.748,0.621-3.96,1.123l0.797-0.355
	c-2.335,0.975-4.373,2.009-6.206,3.192c-1.862,1.212-3.723,2.512-5.496,3.871l-4.403,3.369c-2.601,1.98-5.438,3.96-8.717,4.787
	c-1.802,0.413-3.398,0.621-4.965,0.621c-1.654-0.089-2.719-0.355-3.605-0.621c-0.561-0.207-1.094-0.473-1.625-0.739
	c-1.301-0.857-2.719-1.98-3.458-3.871c-0.295-0.916-0.621-1.862-0.65-2.866c-0.089-0.857-0.06-1.684,0.089-2.541
	c0.207-1.743,0.739-3.694,1.507-5.556c0.739-1.714,1.448-3.398,2.305-4.994c-2.63,2.364-5.26,4.728-7.889,7.063l-3.161,2.866
	c-1.743,1.567-3.487,3.161-5.319,4.699l-4.048,3.487c-4.817,4.137-9.663,8.273-14.657,12.175
	c-6.797,5.289-14.066,10.934-21.571,16.252c-2.955,2.098-5.969,4.049-9.042,5.94l-2.837,1.714c2.335,0.916,4.668,1.654,7.003,2.364
	l0.916,0.295c6.087,1.92,12.115,3.369,17.877,4.315c0.029,0,0.295,0.029,0.444,0.029c0.089,0,0.148-0.029,0.148-0.029
	c0-0.029,0.059-0.029,0.148-0.029c0.118,0,0.266,0.029,0.266,0.029c0.029,0,0.029-0.029,0-0.029
	c5.762,0.828,12.322,0.886,17.995,0.886h2.896h2.896c5.851,0,11.997-0.295,19.355-0.886c4.255-0.621,8.451-1.33,12.677-2.038
	l1.565-0.266c1.654-0.266,3.28-0.562,4.935-0.562c2.866,0,5.496,2.659,5.496,5.467c0,1.359-0.444,2.482-1.034,3.812
	c-0.562,1.241-1.212,2.424-1.951,3.605c-0.739,1.181-1.536,2.335-2.335,3.516c-3.96,5.851-8.746,11.997-15.1,19.414
	c-4.876,5.733-9.899,11.318-14.952,16.903l-1.181,1.3c-13.386,14.834-24.172,25.737-34.987,35.371
	c-13.327,11.938-27.54,22.605-40.926,32.357c-5.733,4.226-12.204,8.273-20.39,12.795c-2.955,1.625-5.94,3.221-8.924,4.787
	c4.137,0.384,8.273,0.532,12.411,0.532c3.9,0,7.831-0.118,11.731-0.355c5.762-0.326,11.524-0.68,17.316-1.094
	c5.733-0.413,11.406-1.005,17.109-1.625c4.846-0.768,9.663-1.567,14.479-2.541c4.757-1.034,9.515-2.128,14.243-3.28
	c4.994-1.212,9.958-2.453,14.894-3.782c4.078-1.064,8.097-2.541,11.938-3.989l0.739-0.266c1.212-0.502,2.423-1.034,3.576-1.565
	l1.951-0.886l0.857-0.384l0.679-0.326c0.71-0.355,1.448-0.71,2.157-0.916c0.68-0.089,1.359-0.177,2.069-0.207h0.029
	c1.625,0,3.132,0.739,4.226,1.951c0.946,1.094,1.389,2.335,1.241,3.545l-0.06,0.886c-0.06,0.71-0.118,1.448-0.326,2.098
	c-0.384,1.152-0.828,2.275-1.33,3.398c-1.063,2.482-2.187,4.639-3.369,6.619c-1.714,2.866-3.576,5.614-5.496,8.362
	c-1.92,2.777-4.018,5.467-6.117,8.155l-1.005,1.3c-5.525,7.21-9.899,12.617-14.155,17.611
	c-11.465,13.534-21.424,24.408-31.382,34.248c-6.826,6.708-12.53,12.057-17.937,16.785c-3.28,2.896-6.56,5.762-9.899,8.628
	c-2.925,2.512-5.94,4.876-8.954,7.269l-1.123,0.886c-6.648,5.319-13.209,10.313-19.473,14.834l-1.389,0.975
	c-2.63,1.891-5.26,3.782-7.949,5.614l0.857,0.384l0.828,0.237c3.842,1.094,7.86,2.009,12.263,2.807
	c3.96,0.473,7.889,0.857,11.849,1.123c3.369,0.266,6.767,0.355,10.164,0.444l2.246,0.06c3.428,0.089,6.885,0.207,10.313,0.207h1.212
	c4.787-0.059,9.515-0.207,14.302-0.443c4.196-0.237,8.392-0.532,12.559-0.857c3.842-0.295,7.683-0.561,11.524-0.768
	c8.097-0.443,16.193-0.71,24.319-0.886c1.478-0.06,2.955-0.06,4.433-0.06c7.151,0,13.416,0.444,19.149,1.389l5.909,0.946
	l5.909,0.975l5.467,0.857l11.76,1.92c0.65-0.029,1.27-0.06,1.891-0.118l2.985-0.355l5.496-0.886l5.496-0.857
	c2.896-0.444,5.792-0.768,8.658-1.094l2.069-0.237l2.541-0.413c5.23-0.768,10.608-1.596,15.928-1.891l2.896-0.148
	c5.438-0.266,10.874-0.532,16.312-1.034l6.856-0.68c3.694-0.355,7.387-0.71,11.081-0.975c6.146-0.444,12.233-0.916,18.321-1.536
	l0.326-0.029l12.499-1.714c4.432-0.621,8.894-1.241,13.327-1.596l6.412-0.473c6.648-0.473,13.238-0.946,19.828-1.567
	c9.722-1.389,21.158-3.132,32.476-5.822c5.88-1.389,11.613-2.808,17.345-4.639c5.496-1.773,10.874-3.694,16.459-5.88
	c0.946-0.413,1.862-0.857,2.777-1.301c-2.275-1.359-4.521-2.601-6.737-3.931c-5.319-3.161-10.55-6.442-15.72-9.811
	c-10.284-6.737-21.216-14.095-31.559-22.339c-4.315-3.427-8.51-6.974-12.736-10.49l-6.324-5.289
	c-5.556-4.58-12.057-10.047-18.055-16.015c-2.069-2.039-4.049-4.137-6.058-6.235l-2.275-2.393l-1.98-2.039l-1.951-2.038
	l-1.359-1.389c-1.123-1.181-2.275-2.335-3.28-3.605c-1.832-2.304-3.28-4.344-4.315-6.796c-0.857-2.069-0.828-3.812,0.06-5.319
	c1.181-2.009,3.9-2.541,6.058-2.985c2.955-0.621,5.378-1.064,7.802-1.507l3.516-0.621c7.358-1.359,14.686-2.866,21.984-4.344
	l2.925-0.591c6.59-1.359,13.209-3.132,19.591-4.846l4.61-1.241c5.496-1.448,11.052-2.837,16.577-4.255l7.121-1.803
	c3.545-0.886,7.063-1.832,10.55-2.808c1.802-0.502,3.605-1.005,5.407-1.536c-3.723-1.684-7.387-3.427-10.992-5.26
	c-3.516-1.773-6.914-3.871-10.195-5.909c-3.25-2.009-6.471-4.018-9.633-6.146c-6.648-4.521-13.504-9.485-20.921-15.189
	c-7.329-5.614-13.416-10.431-19.385-15.573c-6.264-5.407-12.588-10.756-18.912-16.104c-3.31-2.777-6.501-5.674-9.722-8.54
	c-2.896-2.571-5.762-5.141-8.688-7.653c-5.792-4.965-11.731-10.55-18.144-17.138l-0.561-0.562c-0.828-0.886-1.685-1.773-2.393-2.777
	c-0.739-1.034-1.181-1.951-1.685-3.221c-0.355-0.857-0.177-1.803,0-2.719c0.237-1.389,0.857-2.275,1.891-3.161
	c1.034-0.857,2.038-1.389,3.103-1.654c0.621-0.118,1.181-0.237,1.802-0.355c0.828-0.148,1.685-0.295,2.541-0.413
	c3.605-0.532,7.181-0.916,10.756-1.3l1.625-0.148c4.994-0.739,9.929-1.625,14.892-2.659c3.812-0.797,7.594-1.684,11.376-2.571
	l3.96-0.946c4.965-1.123,9.84-2.453,14.745-3.842c3.782-1.034,7.535-2.571,11.17-4.018l1.565-0.65
	c5.319-2.335,10.579-4.787,15.809-7.358c1.654-0.768,3.28-1.567,4.905-2.364c-1.152-0.413-2.305-0.739-3.427-1.123l-1.625-0.561
	c-1.389-0.444-2.748-0.886-4.078-1.418l-2.541-1.064l-3.605-1.448c-3.487-1.448-6.914-3.014-10.342-4.58l-2.305-1.064l-2.157-1.005
	c-2.896-1.301-5.792-2.63-8.599-4.078l-0.679-0.384c-3.25-1.714-6.619-3.487-9.751-5.525c-3.782-2.482-7.505-4.994-11.229-7.535
	l-4.846-3.369c-3.132-2.157-6.264-4.284-9.367-6.501l-0.029-0.029h-0.023V87.266z M163.577,236.58
	c0.71-0.946,1.448-1.92,2.187-2.866l0.679-0.916c0.473-0.679,0.975-1.33,1.478-1.951l1.418-1.684l1.418-1.685l0.502-0.621
	c0.502-0.65,1.005-1.27,1.565-1.832c2.216-2.393,4.433-4.787,6.737-7.121c0.326-0.326,0.797-0.502,1.27-0.502
	c0.502,0,0.945,0.177,1.27,0.502c0.355,0.326,0.532,0.797,0.532,1.27c0,0.502-0.177,0.975-0.532,1.3
	c-1.359,1.359-2.688,2.777-4.018,4.196l-0.946,1.034l-0.946,1.005c-0.295,0.295-0.621,0.621-0.886,0.946l-2.955,3.576l-1.891,2.216
	l-0.768,1.034c-0.886,1.123-1.743,2.246-2.571,3.398l-0.857,1.212l-0.857,1.212l-0.621,0.916c-0.384,0.591-0.768,1.152-1.094,1.773
	c0.118,0.444,0.148,0.768,0.029,1.181c-0.118,0.444-0.443,0.857-0.828,1.094c-0.266,0.148-0.591,0.237-0.946,0.237
	c-0.679,0-1.3-0.355-1.536-0.886c-0.237-0.502-0.473-0.916-0.473-1.418c0.06-0.444,0.118-0.857,0.207-1.27
	c0.177-0.444,0.355-0.797,0.562-1.123l0.473-0.857l0.059,0.029C162.01,238.826,162.779,237.703,163.577,236.58L163.577,236.58z
	 M173.89,249.995c-0.975-0.295-1.567-1.301-1.33-2.275c0.502-1.862,1.034-3.309,1.654-4.55c0.65-1.27,1.152-2.216,1.685-3.103
	c0.561-0.857,1.123-1.743,1.654-2.63l0.413-0.621l0.532-0.886c1.951-2.69,3.9-5.349,5.909-8.008
	c0.355-0.473,0.679-0.768,1.181-0.916c0.237,0,0.413-0.029,0.591-0.029c0.473,0,0.71,0.089,0.916,0.207
	c0.444,0.266,0.768,0.71,0.886,1.181c0.118,0.444,0.118,1.094-0.177,1.507c-2.009,2.601-3.931,5.26-5.851,7.978
	c-0.237,0.326-0.444,0.65-0.65,1.005l-1.507,2.424c-1.359,2.068-2.393,4.018-3.192,5.909l-0.237,0.739l-0.237,0.739
	c-0.266,0.828-0.975,1.389-1.803,1.389v0.059L173.89,249.995L173.89,249.995z M198.297,257.826
	c-0.473-0.148-0.916-0.532-1.152-1.005c-0.207-0.413-0.237-0.857-0.118-1.241c2.777-7.683,6.206-15.278,9.515-22.635l0.71-1.625
	c0.207-0.413,0.739-0.71,1.123-0.828c0.207,0,0.384-0.029,0.532-0.029c0.413,0,0.65,0.089,0.857,0.207
	c0.384,0.237,0.71,0.65,0.828,1.094c0.118,0.502,0.029,0.916-0.177,1.418c-2.009,4.433-3.96,8.865-5.909,13.327l-0.413,0.946
	c-1.241,3.014-2.453,6.028-3.547,9.072c-0.326,0.828-1.005,1.359-1.773,1.359v0.059L198.297,257.826L198.297,257.826z
	 M184.912,253.187c-0.473-0.148-0.916-0.532-1.152-1.005c-0.207-0.413-0.237-0.857-0.118-1.241c0.562-1.567,1.152-3.132,1.832-4.668
	c0.561-1.27,1.123-2.541,1.743-3.812c1.654-3.398,3.339-6.826,5.052-10.224c0.266-0.532,0.886-0.857,1.567-0.857
	c0.295,0,0.621,0.059,0.916,0.207c0.857,0.532,1.123,1.567,0.65,2.512c-1.507,3.014-3.014,6.058-4.492,9.101
	c-0.797,1.625-1.536,3.28-2.275,4.934c-0.413,0.946-0.975,2.335-1.478,3.753c-0.295,0.828-0.975,1.359-1.773,1.359v0.059
	L184.912,253.187L184.912,253.187z M209.704,258.89c-0.326-0.326-0.502-0.768-0.473-1.241c0-0.916,0.029-1.92,0.237-2.837
	c0.118-0.65,0.266-1.27,0.444-1.891c0.207-0.768,0.413-1.507,0.65-2.246c0.502-1.596,1.034-3.192,1.596-4.757l2.157-5.94
	l2.128-5.909c0.326-0.828,1.064-1.389,1.862-1.389c1.005,0.177,1.448,0.562,1.714,1.064c0.237,0.444,0.266,0.916,0.118,1.33
	l-3.989,11.17c-0.591,1.654-1.152,3.31-1.685,4.965l-0.355,1.063l-0.326,1.064l-0.266,0.828l-0.237,0.797
	c-0.148,0.562-0.295,1.123-0.444,1.714v0.975c-0.029,1.005-0.828,1.802-1.802,1.802C210.531,259.451,210.059,259.274,209.704,258.89
	L209.704,258.89z M223.77,258.388c-0.473-0.148-0.857-0.444-1.094-0.857c-0.237-0.413-0.326-0.916-0.207-1.359
	c1.359-4.787,2.926-9.485,4.462-14.213l1.536-4.699c0.266-0.797,0.975-1.3,1.743-1.3c0.975,0.177,1.389,0.502,1.625,0.946
	c0.237,0.413,0.295,0.886,0.177,1.33l-0.916,2.69c-1.773,5.378-3.545,10.756-5.083,16.193c-0.237,0.797-0.975,1.33-1.773,1.33v0.089
	L223.77,258.388L223.77,258.388z M340.225,265.45c-0.473-0.148-0.916-0.532-1.152-1.005c-0.207-0.413-0.237-0.857-0.118-1.241
	c1.241-3.516,2.512-7.063,3.96-10.519c1.743-4.255,3.516-8.481,5.319-12.736c0.177-0.384,0.679-0.71,1.094-0.828
	c0.148,0,0.295,0,0.413,0c0.502,0,0.768,0.089,0.975,0.207c0.384,0.207,0.679,0.591,0.857,1.094c0.118,0.502,0,0.886-0.207,1.389
	l-0.326,0.768l-0.916,2.157c-0.739,1.773-1.478,3.576-2.216,5.378l-0.295,0.71c-0.444,1.005-0.886,1.98-1.27,3.014l-0.886,2.216
	l-1.034,2.688l-1.951,5.407c-0.295,0.828-0.975,1.359-1.773,1.359v0.06L340.225,265.45L340.225,265.45z M245.281,256.348
	c-0.326-0.355-0.473-0.768-0.444-1.212c0.207-3.487,0.502-6.974,0.768-10.461l0.266-3.309c0.029-0.562,0.177-0.975,0.532-1.301
	c0.326-0.326,0.768-0.502,1.27-0.502c0.502,0,1.034,0.237,1.389,0.621c0.295,0.326,0.473,0.768,0.413,1.183l-0.237,3.28
	c-0.295,3.487-0.562,7.003-0.797,10.49c-0.06,1.064-0.797,1.803-1.802,1.803C246.168,256.94,245.636,256.732,245.281,256.348
	L245.281,256.348z M352.31,267.459c-0.444-0.118-0.857-0.443-1.094-0.828c-0.207-0.384-0.355-1.005-0.207-1.418
	c0.857-2.098,1.714-4.196,2.541-6.324c0.444-1.005,0.916-2.038,1.359-3.043l0.975-2.157c0.532-1.212,1.152-2.393,1.773-3.576
	l0.591-1.181c1.181-2.393,2.364-4.787,3.576-7.181c0.266-0.532,0.886-0.857,1.567-0.857c0.384,0,0.679,0.06,0.916,0.207
	c0.857,0.532,1.123,1.567,0.65,2.512l-2.571,5.141l-2.541,5.141c-0.946,1.98-1.862,3.96-2.748,5.969h0.059l-0.089,0.06l-2.512,6.206
	c-0.207,0.473-0.413,0.857-0.857,1.152c-0.266,0.148-0.591,0.237-0.916,0.237v0.059L352.31,267.459L352.31,267.459z
	 M369.922,261.106c-0.295-0.295-0.561-0.797-0.532-1.27c0.148-1.183,0.266-2.364,0.384-3.545c0.089-0.768,0.148-1.536,0.207-2.304
	c0.059-1.625,0.059-3.221-0.029-4.846c-0.029-0.444,0.118-0.886,0.444-1.212c0.355-0.384,0.857-0.591,1.359-0.591
	c0.975,0,1.743,0.768,1.802,1.803c0.089,2.009,0.118,4.018-0.059,5.998l-0.237,2.335l-0.266,2.364
	c-0.029,0.502-0.148,0.886-0.502,1.27c-0.326,0.355-0.828,0.532-1.3,0.532C370.719,261.638,370.276,261.46,369.922,261.106
	L369.922,261.106z M142.567,380.31c-0.413-0.237-0.739-0.65-0.857-1.152c-0.118-0.444-0.029-0.916,0.207-1.33
	c3.192-5.054,6.619-9.84,10.431-15.1c2.364-3.28,5.172-7.121,8.215-10.756c1.418-1.685,2.837-3.31,4.315-4.905l0.591-0.621
	c1.005-1.034,2.009-2.069,3.132-3.014c1.389-1.212,2.304-2.009,3.28-2.659c0.916-0.591,1.832-1.181,2.955-1.536
	c0.089,0,0.148,0,0.237,0c1.123,0,1.773,0.532,1.98,1.27c0.266,0.946-0.295,1.951-1.27,2.246c-0.857,0.355-1.478,0.739-2.098,1.181
	l-0.71,0.502c-4.639,3.782-8.51,8.244-12.854,13.829c-1.743,2.275-3.192,4.255-4.639,6.235c-1.3,1.862-2.601,3.634-3.931,5.438
	c-0.65,0.916-1.27,1.832-1.891,2.748l-1.359,2.009c-1.123,1.654-2.187,3.31-3.25,4.994c-0.326,0.532-0.946,0.857-1.567,0.857
	C143.158,380.545,142.833,380.457,142.567,380.31L142.567,380.31z M155.155,393.488c-0.975-0.295-1.567-1.359-1.3-2.275
	c0.532-1.832,1.152-3.634,1.862-5.407l1.685-4.018l0.473-1.152c0.413-0.946,0.857-1.862,1.3-2.777l0.65-1.389l2.659-5.673
	c0.384-0.797,0.828-1.507,1.241-2.246l3.664-6.382l2.246-3.9l0.946-1.685c1.212-2.039,2.482-4.018,3.753-5.998l0.71-1.152
	c0.444-0.68,1.183-1.094,1.951-1.094c0.355,0,0.739,0.089,1.094,0.295c0.502,0.295,0.886,0.797,1.034,1.389
	c0.148,0.591,0.06,1.183-0.237,1.654l-1.034,1.596c-1.212,1.951-2.453,3.871-3.605,5.88l-1.094,1.92l-1.951,3.369l-3.458,5.969
	c-0.679,1.152-1.034,1.743-1.3,2.364l-2.571,5.23l-0.71,1.389c-0.473,0.916-0.916,1.832-1.33,2.777
	c-1.359,2.925-2.63,5.644-3.782,8.333c-0.148,0.384-0.384,1.034-0.621,1.685c-0.148,0.384-0.355,0.797-0.857,1.094
	c-0.295,0.148-0.621,0.237-0.946,0.237v0.089L155.155,393.488L155.155,393.488z M184.173,391.597
	c-0.473-0.148-0.916-0.502-1.152-0.975c-0.237-0.413-0.266-0.857-0.148-1.27c1.743-5.083,3.782-10.047,5.822-15.011l0.828-2.038
	c1.773-4.373,3.605-8.746,5.407-13.12l2.216-5.438c0.207-0.444,0.413-0.828,0.857-1.094c0.266-0.177,0.561-0.237,0.945-0.237
	c0.946,0.207,1.33,0.502,1.536,0.886c0.237,0.384,0.355,0.975,0.207,1.389l-3.192,7.683l-4.462,10.874l-0.473,1.152
	c-2.157,5.26-4.315,10.519-6.146,15.898c-0.295,0.828-1.005,1.359-1.802,1.359v0.059L184.173,391.597L184.173,391.597z
	 M170.018,391.036c-0.443-0.118-0.857-0.444-1.094-0.828c-0.207-0.384-0.355-1.005-0.207-1.418
	c2.186-5.201,4.492-10.342,6.945-15.425l4.107-8.362l4.078-8.362c0.266-0.532,0.886-0.886,1.567-0.886
	c0.326,0,0.679,0.089,0.916,0.237c0.857,0.532,1.123,1.536,0.65,2.512l-2.128,4.315c-4.166,8.51-8.51,17.287-12.263,26.152
	c0,0-0.177,0.384-0.326,0.768c-0.207,0.502-0.413,0.828-0.857,1.123c-0.295,0.148-0.591,0.237-0.916,0.237v0.06L170.018,391.036
	L170.018,391.036z M200.159,393.34c-0.946-0.295-1.478-1.212-1.241-2.246c0.444-2.364,1.183-4.668,1.92-6.944
	c0.679-2.187,1.27-3.9,1.862-5.644l0.562-1.685l0.797-2.364l0.355-1.181c0.384-1.123,0.621-1.802,0.768-2.423
	c0.768-2.926,1.507-5.822,2.157-8.717c0.178-0.857,1.034-1.3,1.773-1.3c1.418,0.295,1.951,1.27,1.743,2.246
	c-0.71,3.014-1.448,5.998-2.216,8.983c-0.148,0.591-0.355,1.181-0.562,1.773l-0.355,1.064l-0.916,2.866
	c-0.857,2.512-1.714,5.023-2.541,7.565c-0.828,2.69-1.448,4.669-1.891,6.708c-0.148,0.886-1.064,1.33-1.802,1.33v0.089
	L200.159,393.34L200.159,393.34z M217.268,387.933c-0.975-0.295-1.507-1.27-1.27-2.246c0.65-2.571,1.418-5.112,2.157-7.653
	l0.502-1.743c0.71-2.423,1.359-4.817,2.038-7.24l0.71-2.63c0.237-0.797,0.975-1.33,1.773-1.33c1.418,0.326,1.98,1.3,1.743,2.275
	l-0.916,3.221c-0.65,2.453-1.33,4.876-2.009,7.299c-1.005,3.398-1.802,6.058-2.482,8.746c-0.237,0.797-0.946,1.359-1.773,1.359
	v0.059L217.268,387.933L217.268,387.933z M227.315,395.35c-0.975-0.295-1.507-1.27-1.27-2.246c0.886-3.634,1.98-7.21,3.074-10.785
	l1.773-5.614l2.512-8.186c0.237-0.797,0.975-1.33,1.773-1.33c0.946,0.177,1.389,0.561,1.625,1.005
	c0.207,0.413,0.237,0.857,0.118,1.27l-1.448,4.668l-2.896,9.338c-1.063,3.516-2.127,7.032-3.014,10.579
	c-0.207,0.797-0.946,1.359-1.803,1.359v0.059L227.315,395.35L227.315,395.35z M242.799,393.075
	c-0.945-0.295-1.478-1.181-1.241-2.216l1.862-10.077c0.444-2.482,0.797-5.023,1.181-7.535l0.295-2.039
	c0.029-0.413,0.444-0.828,0.797-1.064c0.295-0.148,0.591-0.237,0.886-0.237c0.946,0.177,1.359,0.473,1.625,0.886
	c0.237,0.444,0.207,0.857,0.148,1.418c-0.473,3.369-0.946,6.708-1.567,10.047l-0.562,3.192c-0.384,2.127-0.797,4.255-1.212,6.382
	c-0.148,0.828-1.034,1.3-1.743,1.3v0.06L242.799,393.075L242.799,393.075z M312.004,395.409c-0.473-0.148-0.886-0.444-1.123-0.886
	c-0.237-0.443-0.295-0.916-0.177-1.359c0.768-2.601,1.743-5.112,2.748-7.624c0.561-1.33,1.094-2.63,1.625-3.96
	c0.473-1.123,0.916-2.275,1.241-3.427c0.266-0.945,0.502-1.891,0.739-2.866c0.029-0.444,0.06-0.797,0.029-1.123
	c-0.029-0.444,0.118-0.886,0.444-1.212c0.355-0.384,0.857-0.591,1.359-0.591c0.975,0,1.743,0.768,1.802,1.802
	c0.029,0.591,0,1.241-0.148,1.891c-0.089,0.68-0.207,1.3-0.384,1.951c-0.413,1.478-0.886,2.925-1.478,4.373l-0.828,2.009
	l-0.797,1.98c-1.063,2.541-2.039,5.083-2.837,7.742c-0.266,0.797-0.975,1.359-1.773,1.359v0.06L312.004,395.409L312.004,395.409z
	 M302.548,394.995c-0.473-0.148-0.916-0.502-1.152-0.946c-0.237-0.413-0.266-0.886-0.148-1.3c1.507-4.462,3.161-8.865,4.846-13.267
	l0.561-1.507c0.207-0.532,0.473-0.857,0.828-1.094c0.295-0.178,0.621-0.237,0.946-0.237c0.946,0.207,1.418,0.561,1.654,1.063
	c0.207,0.413,0.237,0.828,0.089,1.212l-1.034,2.748c-1.507,3.989-3.014,7.978-4.344,12.027c-0.266,0.828-0.975,1.359-1.743,1.359
	v0.06L302.548,394.995L302.548,394.995z M323.913,396.827c-0.444-0.118-0.857-0.444-1.094-0.828
	c-0.237-0.384-0.355-0.975-0.177-1.389c1.034-2.541,2.069-5.083,3.161-7.594l0.916-2.009l2.926-6.619
	c0.177-0.384,0.679-0.71,1.094-0.857c0.118,0,0.207,0,0.295,0c0.621,0,0.857,0.089,1.094,0.207c0.384,0.207,0.679,0.591,0.857,1.094
	c0.118,0.502,0,0.946-0.207,1.418c-1.3,2.896-2.601,5.822-3.871,8.717l-2.748,6.59c-0.207,0.444-0.384,0.828-0.828,1.094
	c-0.266,0.148-0.591,0.237-0.916,0.237v0.089L323.913,396.827L323.913,396.827z"/>
<path style="fill:#FFFFFF;" d="M249.743,12.86c-5.467,7.092-10.726,13.032-16.046,18.084l-1.685,1.625
	c-2.098,1.98-4.196,3.96-6.206,5.998c-6.235,8.067-12.499,16.134-18.912,24.053c-2.719,3.369-5.496,6.648-8.333,9.899
	c0.177,0.443,0.237,0.828,0.237,1.212c0,0.768-0.295,1.33-0.768,1.891l-1.389,1.714l-2.541,3.103
	c-5.054,6.56-9.396,12.441-12.528,19.266c-0.824,2.089-1.383,3.885-1.797,5.797c-0.046,0.521-0.055,0.991-0.035,1.443
	c0.089,0.413,0.207,0.768,0.326,1.094l0.768,0.916c0.384,0.237,0.797,0.444,1.212,0.621c0.886,0.089,1.3,0.089,1.684,0.089
	c0.384,0,0.797,0,1.183-0.029c1.152-0.237,2.187-0.532,3.28-0.916c-0.029,0.029-0.444,0.177-0.413,0.207
	c0.975-0.444,1.951-0.916,2.866-1.536c0.65-0.444,1.27-0.886,1.891-1.359l0.739-0.532l0.65-0.532l3.398-2.69
	c2.186-1.743,4.344-3.487,6.708-4.994c2.246-1.478,4.728-2.748,7.535-3.931l0.857-0.326c1.33-0.561,2.69-1.152,4.137-1.152
	c0.413,0,0.828,0.059,1.212,0.148c0.916,0.237,1.625,0.561,2.453,1.034c0.532,0.384,0.946,0.768,1.3,1.212
	c0.946,0.975,1.478,2.423,1.714,3.221c0.71,2.63,0.916,5.349,1.034,7.92l0.089,1.33c0.207,3.605,0.413,7.21,0.797,10.786
	c0.207,1.448,0.443,2.955,0.828,4.344c0.355,1.418,0.797,2.748,1.33,4.078c0.975,2.128,1.98,3.931,3.161,5.614
	c0.828,1.034,1.714,1.951,2.719,2.808c1.064,0.768,2.157,1.418,3.31,1.98c1.181,0.444,2.364,0.797,3.605,1.094h1.064h1.063
	c0.68-0.177,1.33-0.355,1.98-0.591c0.621-0.326,1.212-0.679,1.802-1.094c0.562-0.532,1.064-1.064,1.536-1.625
	c0.621-0.857,1.212-1.714,1.654-2.63c0.473-0.857,0.886-1.743,1.27-2.63c1.536-3.931,2.659-8.067,3.723-12.057l0.71-2.69
	c0.532-2.009,1.094-4.018,1.654-5.998c0.886-3.132,1.862-6.412,3.427-9.396c1.33-2.482,2.63-4.403,3.989-5.851
	c0.739-0.768,1.448-1.478,2.275-2.098l1.389-1.005c1.005-0.473,2.186-0.975,3.427-0.975c0.355,0,0.679,0.029,0.975,0.089
	c0.679,0.118,1.212,0.295,1.684,0.532l0.975,0.384l-0.06,0.059c0.473,0.355,0.916,0.739,1.359,1.152
	c0.65,0.739,1.301,1.478,1.773,2.275c0.679,1.094,1.241,2.246,1.773,3.428l0.502,1.181l0.502,1.181
	c1.212,2.807,2.571,5.289,4.196,7.565c0.621,0.739,1.241,1.359,1.951,1.98c0.946,0.621,1.862,1.181,2.866,1.684
	c1.005,0.326,1.98,0.591,3.074,0.768c0.266,0,0.502,0,0.679,0c0.65,0,0.946-0.029,1.241-0.059c0.562-0.089,1.094-0.266,1.625-0.444
	c0.384-0.177,0.739-0.384,1.094-0.621c0.502-0.413,0.946-0.857,1.359-1.3c0.946-1.448,1.684-2.926,2.393-4.492l0.768-1.832
	l1.832-4.521c0.975-2.335,2.127-4.551,3.369-6.767c0.65-1.123,1.33-2.246,2.127-3.25c0.857-1.094,1.418-1.862,2.246-2.335
	c0.768-0.444,1.654-0.71,2.601-0.797c0.029,0,0.059,0,0.089,0c2.246,0,4.048,0.828,5.998,2.512c1.005,0.886,2.009,1.773,3.074,2.63
	c0.886,0.65,1.743,1.181,2.659,1.596l-0.975-0.384c0.473,0.207,0.975,0.413,1.507,0.561c0.029,0,0.828-0.355,0.828-0.355
	c0-0.029,0.502-0.561,0.502-0.591c1.92-2.69,3.427-5.674,4.757-8.481c-5.054-3.871-11.642-8.924-17.937-14.508
	c-2.985-2.601-5.94-5.26-8.776-8.067c-2.571-2.512-5.054-5.052-7.535-7.653l-1.27-1.301l-8.333-8.658
	c-1.891-1.92-3.842-3.753-5.792-5.614l-2.335-2.216c-3.043-2.926-5.94-5.969-8.835-9.012c-3.132-3.339-5.703-5.822-8.304-8.038
	l1.094,1.005c-1.478-1.3-3.014-2.482-4.639-3.576l-0.857-0.591c-1.92-1.33-3.931-2.719-6.117-3.753c-0.029,0-0.562-0.177-0.65-0.177
	C251.28,10.881,250.512,11.886,249.743,12.86L249.743,12.86z"/>
<path style="fill:#BF8A49;" d="M303.789,429.503c-6.412,1.005-12.233,1.891-18.055,2.512c-2.985,0.355-5.969,0.532-8.983,0.71
	l-2.926,0.177l-2.659,0.207c-3.074,0.237-5.851,0.444-8.658,0.561c-2.453,0.148-4.905,0.178-7.358,0.178l-4.048-0.029l-5.171-0.029
	c-2.127,0-4.284,0-6.442-0.06c-1.98-0.029-3.931-0.06-5.88-0.148c-2.127-0.118-4.166-0.355-6.264-0.621l-2.63-0.355l0.06,1.33
	c0.326,3.428,0.739,7.713,0.71,12.057v3.576l-0.029,3.605c0,3.043,0.118,6.117,0.207,9.16l0.059,1.832l0.089,3.161
	c0.148,4.876,0.237,9.722,0.089,14.597c-0.06,2.304-0.237,4.61-0.473,6.914l-0.177,1.714c-0.207,1.773-0.413,3.545-0.355,5.319
	c0.828,0.975,1.389,1.301,1.951,1.567c2.63,0.946,5.319,1.714,7.949,2.453c3.989,1.123,7.358,1.951,10.904,2.482
	c2.601,0.295,5.467,0.473,8.51,0.473c2.482,0,4.965-0.118,7.447-0.326l4.255-0.413l4.373-0.413
	c3.782-0.355,7.565-0.591,11.347-0.768c4.107-0.207,8.186-0.473,12.233-0.857c2.837-0.295,5.614-0.65,8.421-1.005l2.216-0.266
	l1.123-0.237c1.536-0.148,2.955-0.384,4.196-0.828l0.828-0.797c0.768-2.009,1.241-3.931,1.714-6.767
	c0.266-2.246,0.532-4.491,0.562-6.767c0.059-2.512,0.059-4.994-0.029-7.505c-0.06-1.685-0.207-3.369-0.355-5.054l-0.118-1.625
	c-0.177-2.364-0.384-4.728-0.679-7.063c-0.384-2.364-1.034-4.61-1.714-6.856l-0.384-1.3l-0.65-2.246
	c-0.71-2.601-1.27-5.171-1.714-7.771l-0.237-1.478c-0.355-2.275-0.71-4.55-1.3-6.796c-0.355-1.596-0.857-3.192-1.389-4.787
	l-0.413-1.3l-0.118-0.118h-0.036V429.503z M237.066,463.839c-0.326-0.295-0.473-0.739-0.473-1.212c0-0.532,0.207-0.916,0.473-1.241
	c3.871-4.728,7.831-9.338,11.791-13.918l3.782-4.373c0.266-0.355,0.679-0.502,1.152-0.502c0.532,0,0.975,0.177,1.3,0.502
	c0.326,0.295,0.473,0.739,0.473,1.212s-0.118,0.828-0.473,1.212l-3.458,4.018c-4.107,4.757-8.186,9.485-12.115,14.302
	c-0.237,0.326-0.65,0.502-1.152,0.502S237.392,464.165,237.066,463.839L237.066,463.839z M243.538,467.091
	c-0.413-0.266-0.71-0.71-0.797-1.212c-0.059-0.65,0.029-0.946,0.177-1.212c0.797-1.094,1.625-2.187,2.541-3.25
	c0.916-1.034,1.862-2.069,2.837-3.074c0.237-0.295,0.502-0.502,0.768-0.768l0.828-0.768l1.005-0.916
	c1.123-0.946,2.246-1.862,3.398-2.777c0.444-0.384,0.797-0.502,1.241-0.502c0.473,0,0.886,0.177,1.212,0.502
	c0.326,0.266,0.502,0.71,0.502,1.212c0,0.384-0.118,0.916-0.502,1.212l-1.951,1.596c-0.946,0.768-1.241,1.005-1.478,1.212
	l-1.478,1.389l-0.975,0.886l-0.621,0.679c-0.65,0.68-1.3,1.359-1.92,2.069c-0.591,0.68-1.152,1.359-1.684,2.039l-0.68,1.064
	c-0.355,0.502-0.946,0.828-1.536,0.828C244.129,467.297,243.863,467.238,243.538,467.091L243.538,467.091z M253.112,464.726
	c0.355-0.975,1.005-1.507,1.802-1.507c0.797,0.148,1.27,0.444,1.536,0.946c0.207,0.384,0.266,0.797,0.148,1.212
	c-1.063,3.103-2.985,5.822-4.699,8.244l-1.596,2.364l-0.502,0.71c-0.621,0.886-1.212,1.773-1.773,2.69l-3.28,5.438
	c-0.355,0.502-0.916,0.797-1.536,0.797c-0.326,0-0.621-0.059-0.857-0.177c-0.384-0.266-0.68-0.65-0.797-1.094
	c-0.089-0.444-0.029-0.946,0.177-1.33c1.063-1.802,2.157-3.634,3.28-5.438l1.094-1.654l0.797-1.241l1.212-1.714l1.212-1.773
	l0.502-0.71c0.384-0.532,0.65-0.916,0.886-1.33c0.473-0.71,0.916-1.418,1.33-2.157c0.444-0.797,0.828-1.625,1.183-2.482
	l-0.207,0.444L253.112,464.726L253.112,464.726z"/>
<g>
	<path style="fill:#161616;" d="M466.933,379.092c-1.92-1.654-3.989-3.192-6.176-4.521c-7.121-4.344-14.421-8.422-21.6-12.706
		c-6.797-4.018-13.534-8.067-20.182-12.293c-6.974-4.433-13.711-9.16-20.39-14.037c-9.043-6.59-18.439-12.617-27.481-19.267
		c-3.605-2.925-7.151-5.909-10.726-8.954c-3.842-3.28-8.067-6.382-11.524-10.077c2.009-0.029,3.989,0,5.969-0.118
		c4.491-0.237,8.924-0.857,13.356-1.507c7.949-1.181,15.868-2.719,23.758-4.344c3.96-0.828,7.889-1.832,11.849-2.807
		c4.344-1.094,8.659-2.128,13.001-3.192c7.919-1.92,15.839-3.664,23.728-5.585c2.363-0.573,4.716-1.211,7.063-1.861
		c0.114,1.738,0.212,3.466,0.354,5.206c0.118,1.567,0.237,3.103,0.355,4.669c0.089,0.975,0.177,1.98,0.237,2.955
		c-0.502,0.06-1.034,0.118-1.536,0.207c-1.359,0.266-2.63,0.621-3.929,1.123c-2.866,1.123-5.614,2.719-8.008,4.668
		c-1.212,1.005-2.335,2.009-3.369,3.192c-1.241,1.418-2.187,3.014-3.014,4.668c-1.33,2.777-1.743,5.822-1.862,8.835
		c-0.059,1.359,0.237,2.748,0.502,4.049c0.355,1.654,1.064,3.221,1.802,4.728c0.562,1.123,1.478,2.098,2.305,3.043
		c0.502,0.502,1.064,0.975,1.625,1.418c0.768,0.591,1.565,1.152,2.393,1.654c1.123,0.739,2.393,1.241,3.664,1.743
		c1.654,0.71,3.487,1.094,5.26,1.478c3.547,0.71,7.121,0.621,10.668,0c1.33-0.237,2.601-0.946,3.753-1.625
		c0.502-0.355,1.005-0.739,1.507-1.123c0.768-0.71,1.448-1.418,2.039-2.246c1.181-1.625,2.187-3.398,2.985-5.23
		c0.326-0.71,0.65-1.389,0.916-2.098c0.532-1.478,0.916-2.925,1.212-4.462c0.295-1.536,0.473-3.161,0.591-4.728
		c0.118-1.359,0.148-2.748,0.148-4.107c0-1.094-0.148-2.098-0.295-3.161c-0.177-0.797-0.444-1.536-0.797-2.246
		c-0.384-0.886-0.797-1.714-1.301-2.512c-1.596-2.541-4.433-3.753-7.21-4.581c-0.886-0.266-1.862-0.413-2.777-0.561
		c-0.207-0.029-0.443-0.06-0.65-0.118c0-0.177,0-0.355-0.029-0.561c-0.089-1.832-0.355-3.664-0.502-5.467
		c-0.323-3.54-0.555-7.057-0.799-10.575c0.618-0.185,1.245-0.343,1.863-0.541c2.157-0.65,4.226-1.565,6.295-2.453
		c1.152-0.502,2.246-1.33,3.192-2.128c1.034-0.886,1.802-1.98,2.63-3.074c0.413-0.828,0.739-1.714,0.975-2.601
		c0.444-1.536,0.177-2.955-0.118-4.462c-0.326-0.797-0.65-1.567-1.005-2.364c-0.473-1.094-1.418-1.98-2.157-2.866
		c-0.444-0.532-1.034-0.975-1.567-1.389c-1.181-0.946-2.364-1.773-3.634-2.601c-1.418-0.886-3.074-1.536-4.61-2.216
		c-1.773-0.797-3.605-1.536-5.407-2.304c-2.985-1.3-5.998-2.601-8.894-4.137c-3.753-1.951-7.447-3.989-11.14-6.087
		c-7.092-3.989-14.035-8.273-20.862-12.736c-6.826-4.462-13.563-9.072-20.271-13.74c-6.796-4.757-13.445-9.751-20.153-14.627
		c-10.017-7.21-19.917-14.657-29.845-22.073c-2.482-1.98-4.905-4.049-7.298-6.146c-1.507-1.33-3.103-2.69-4.61-4.137
		c6.087-0.532,12.144-1.094,18.114-2.275c7.949-1.536,15.78-3.723,23.669-5.703c7.536-1.891,15.1-3.9,22.339-6.797
		c8.097-3.221,16.015-6.797,23.906-10.519c2.579-1.249,5.16-2.452,7.74-3.671c0.294,4.099,0.589,8.2,0.859,12.276
		c0.266,3.812,0.591,7.565,0.768,11.318c-0.06,0.029-0.118,0.029-0.148,0.059c-1.743,0.502-3.516,0.857-5.23,1.359
		c-3.074,0.886-5.703,2.571-8.126,4.58c-2.393,1.98-4.226,4.728-5.585,7.476c-1.478,2.985-2.127,6.175-2.157,9.456
		c-0.029,3.221,1.152,6.264,2.63,9.043c0.65,1.212,1.389,2.364,2.216,3.458c1.005,1.359,2.187,2.482,3.516,3.545
		c2.69,2.127,5.909,3.634,9.338,3.96c3.753,0.355,7.565,0,11.258-0.797c1.507-0.326,2.955-1.034,4.344-1.714
		c1.743-0.857,3.31-2.216,4.699-3.576c0.975-0.945,1.773-2.186,2.512-3.339c0.857-1.27,1.359-2.866,1.743-4.344
		c0.444-1.625,0.591-3.398,0.768-5.083c0.237-2.275,0-4.492-0.384-6.767c-0.207-1.181-0.444-2.393-0.679-3.605
		c-0.326-1.507-0.916-2.896-1.567-4.284c-0.326-0.591-0.71-1.123-1.123-1.625c-0.473-0.621-0.946-1.183-1.448-1.773
		c-0.679-0.797-1.389-1.536-2.216-2.216c-1.33-1.094-2.866-1.714-4.462-2.364c-1.152-0.444-2.364-0.71-3.605-0.916
		c-0.029-0.295-0.06-0.591-0.118-0.916c-0.029-0.237-0.029-0.473-0.059-0.71c-0.029-0.532-0.089-1.034-0.118-1.565
		c-0.118-1.507-0.237-3.043-0.355-4.58c-0.502-6.264-0.916-12.559-1.389-18.852c-0.009-0.124-0.063-0.229-0.084-0.35
		c0.107-0.054,0.214-0.104,0.321-0.158c3.074-1.596,7.032-4.107,7.032-8.037c0-3.458-2.63-5.407-5.201-7.21
		c-1.181-0.797-2.571-1.418-3.871-1.98c-3.25-1.389-6.501-2.719-9.78-4.049c-7.151-3.192-14.213-6.59-21.305-9.899
		c-7.329-3.427-14.805-6.767-21.631-11.111c-6.796-4.315-13.504-8.746-20.241-13.149c-6.708-4.403-13.356-8.835-19.828-13.534
		c-2.601-1.891-5.201-3.842-7.771-5.791c-5.791-4.61-11.347-9.367-16.814-14.361c-6.146-5.644-12.381-11.14-18.852-16.37
		c-2.985-2.423-5.94-4.905-8.717-7.565c-3.074-2.925-6.058-5.94-9.396-8.51c-3.161-2.424-6.442-4.521-9.869-6.56
		c-1.478-0.857-3.014-1.714-4.639-2.304c-1.005-0.355-1.951-0.621-2.985-0.797C254.472,0.06,253.791,0,253.112,0
		c-0.502,0-1.005,0.029-1.596,0.089c-0.444,0.06-0.886,0.118-1.301,0.178c-0.679,0.237-1.33,0.532-1.92,0.916
		c-0.71,0.384-1.773,1.448-2.127,2.216c-0.142,0.313-0.309,0.622-0.454,0.938c-0.225,0.132-0.459,0.247-0.639,0.457
		c-6.146,7.387-12.233,14.863-18.292,22.339c-4.787,5.969-9.545,11.968-14.45,17.848c-5.141,6.146-10.135,12.441-15.602,18.292
		c-3.074,3.309-6.146,6.53-9.338,9.722c-2.866,2.896-5.88,5.674-8.835,8.481c-3.753,3.516-7.771,6.737-11.731,9.988
		c-3.664,3.043-7.418,6.028-11.199,8.983c-9.662,7.358-19.296,14.686-29.313,21.6c-5.26,3.605-10.49,7.181-15.868,10.637
		c-2.63,1.684-5.26,3.369-7.889,5.054c-1.212,0.768-2.453,1.567-3.605,2.453c-2.423,1.773-5.112,3.694-5.644,6.885
		c-0.473,2.601,0.326,4.492,2.453,6.028c0.007,0.005,0.015,0.005,0.021,0.009c0.211,3.323,0.422,6.661,0.658,9.978
		c0.089,1.33,0.177,2.659,0.295,3.989c0.059,1.27,0.207,2.541,0.237,3.782c-0.621,0.207-1.212,0.384-1.832,0.591
		c-1.654,0.561-3.192,1.389-4.699,2.246c-1.654,0.975-3.161,2.216-4.55,3.545c-1.448,1.359-2.63,3.043-3.753,4.668
		c-1.005,1.478-1.862,3.132-2.512,4.787c-0.71,1.803-1.359,3.634-1.596,5.556c-0.148,0.946-0.207,1.891-0.207,2.866
		c-0.059,0.975,0.148,2.038,0.295,3.043c0.237,1.92,0.916,3.871,1.714,5.614c0.237,0.591,0.502,1.181,0.797,1.743
		c0.384,0.739,1.005,1.389,1.507,2.039c0.975,1.212,2.335,2.157,3.605,2.985c1.536,1.005,3.25,1.684,4.965,2.335
		c2.246,0.886,4.61,1.3,7.003,1.596c2.009,0.237,4.166-0.237,6.117-0.739c0.621-0.207,1.27-0.444,1.862-0.739
		c1.034-0.413,2.009-0.857,2.985-1.389c3.221-1.743,5.289-4.817,6.767-8.097c1.005-2.246,1.536-4.668,1.862-7.121
		c0.207-1.654,0.413-3.31,0.502-4.994c0.089-1.034,0.148-2.069,0.118-3.103c0-1.685-0.384-3.398-0.797-5.054
		c-0.177-0.65-0.413-1.27-0.71-1.891c-0.444-1.005-0.886-1.891-1.478-2.807c-0.679-1.005-1.567-1.951-2.453-2.777
		c-1.094-0.975-2.364-1.714-3.664-2.364c-1.654-0.797-3.339-1.685-5.141-2.157c-0.65-0.178-1.301-0.326-1.951-0.413
		c0-0.029,0-0.029,0-0.029c0-0.502-0.118-1.063-0.148-1.565c-0.089-0.857-0.148-1.685-0.207-2.541
		c-0.316-4.063-0.599-8.126-0.876-12.189c0.804,0.181,1.616,0.364,2.412,0.547c1.684,0.384,3.369,0.828,5.052,1.27
		c3.929,1.034,7.831,2.187,11.76,3.31c4.817,1.389,9.693,2.719,14.627,3.664c5.496,1.034,11.052,1.3,16.607,1.714
		c3.811,0.266,7.624,0.326,11.436,0.473c3.812,0.148,7.683,0.413,11.465,0.237c2.038-0.089,4.078-0.089,6.087-0.295
		c2.038-0.207,4.078-0.413,6.117-0.65c0.946-0.089,1.891-0.207,2.837-0.355c-2.216,2.719-4.492,5.349-6.797,7.949
		c-2.808,3.192-5.851,6.206-8.835,9.22c-5.673,5.762-11.495,11.436-17.405,16.991c-12.057,11.407-24.379,22.517-37.321,32.978
		c-0.532,0.443-1.034,0.857-1.596,1.33c-2.777,2.128-5.525,4.255-8.304,6.412c0.591-0.473,1.181-0.946,1.802-1.418
		c-6.382,4.817-12.795,9.604-19.207,14.332c-6.767,4.965-13.504,9.929-20.478,14.597c-3.427,2.275-6.914,4.462-10.342,6.737
		c-3.9,2.541-7.86,5.023-11.465,7.978c-1.389,1.152-2.777,2.275-4.078,3.516c-1.3,1.241-2.423,2.688-3.25,4.255
		c-1.478,2.837-0.916,6.648,1.951,8.392c2.866,1.743,6.679,1.684,9.929,1.891c2.216,0.148,4.462,0.295,6.708,0.473
		c4.049,0.326,8.097,0.591,12.175,0.768c1.058,0.043,2.12,0.03,3.182,0.059c-0.132,3.483-0.266,6.983-0.345,10.462
		c-0.029,1.507-0.029,3.014-0.059,4.521c0,0.857,0,1.714-0.029,2.571c-0.118,0.029-0.266,0.089-0.384,0.148
		c-0.266,0.029-0.502,0.059-0.768,0.089c-1.359,0.177-2.63,0.532-3.871,1.094c-3.014,1.33-5.644,3.28-8.126,5.438
		c-2.039,1.743-3.694,3.871-4.965,6.235c-0.591,1.094-0.975,2.335-1.389,3.516c-0.679,1.98-0.946,3.989-1.064,6.058
		c0,0.739,0.029,1.478,0.177,2.187c0.089,0.975,0.266,1.92,0.532,2.837c0.326,1.301,0.975,2.571,1.596,3.753
		c0.561,1.064,1.301,2.069,2.069,2.985c1.152,1.418,2.423,2.808,3.96,3.812c1.3,0.857,2.63,1.654,4.078,2.127
		c1.654,0.532,3.309,0.886,5.023,1.094c1.478,0.148,2.866,0.207,4.344,0.148c1.92-0.089,3.782-0.502,5.644-0.975
		c0.621-0.177,1.27-0.384,1.891-0.621c0.561-0.237,1.123-0.444,1.684-0.71c1.183-0.65,2.216-1.389,3.28-2.275
		c1.123-0.916,1.951-2.187,2.837-3.31c1.034-1.359,1.802-2.985,2.423-4.58c0.857-2.216,1.389-4.462,1.654-6.856
		c0.059-0.621,0.148-1.241,0.207-1.832c0.148-1.359,0.118-2.69-0.029-4.049c-0.355-3.545-1.567-6.856-3.31-9.929
		c-1.507-2.63-4.107-4.403-6.826-5.556c-1.181-0.473-2.304-0.797-3.547-1.005c-0.797-0.118-1.625-0.177-2.453-0.207
		c-0.029-1.212-0.059-2.453-0.089-3.694c-0.054-4.455,0.143-8.934,0.334-13.395c1.772,0.022,3.544,0.085,5.31,0.097
		c8.392,0.029,16.785-0.207,25.176-0.473c3.871-0.118,7.742-0.562,11.584-0.857c2.039-0.148,4.049-0.502,6.058-0.739
		c2.009-0.266,4.018-0.444,6.028-0.797c4.196-0.739,8.362-1.448,12.559-2.335c4.315-0.886,8.658-1.832,12.972-2.777
		c5.23-1.123,10.313-2.659,15.395-4.255c0.326-0.089,0.621-0.207,0.916-0.295c-1.123,1.567-2.304,3.103-3.487,4.639
		c-5.141,6.146-10.313,12.175-15.78,18.026c-5.733,6.117-11.702,12.026-17.671,17.937c-5.614,5.525-11.436,10.845-17.316,16.075
		c-6.176,5.525-12.352,11.022-18.765,16.223c-4.846,3.931-9.751,7.771-14.656,11.613c-7.653,5.703-15.336,11.318-23.02,16.961
		c-3.694,2.719-7.416,5.438-11.14,8.155c-2.423,1.773-4.846,3.605-7.21,5.467c-0.71,0.591-1.478,1.183-2.098,1.862
		c-0.857,0.886-1.743,1.773-2.393,2.837c-1.094,1.832-1.684,3.516-1.684,5.673c-0.029,4.284,3.487,7.594,7.624,7.802
		c0.473,0.06,0.946,0.118,1.389,0.148c0.444,0.06,0.857,0.118,1.27,0.177c-0.029,0-0.059,0-0.089,0
		c3.753,0.562,7.476,1.241,11.17,2.127c3.504,0.818,7.015,1.58,10.538,2.276c-0.03,0.199-0.119,0.383-0.107,0.59
		c0.237,3.31,0.473,6.59,0.739,9.899c0.118,1.832,0.326,3.634,0.473,5.467c-0.355,0.089-0.68,0.207-0.975,0.326
		c-1.567,0.561-2.985,1.418-4.344,2.335c-2.896,1.98-5.201,4.61-7.24,7.447c-2.127,2.926-3.576,6.324-4.344,9.84
		c-0.384,1.714-0.502,3.427-0.413,5.171c0.089,1.862,0.621,3.664,1.241,5.407c1.33,3.634,3.664,6.797,6.501,9.396
		c2.659,2.482,5.998,4.107,9.427,5.289c3.28,1.123,6.945,1.596,10.372,1.034c3.427-0.532,6.796-1.92,9.544-4.048
		c0.739-0.532,1.418-1.094,2.039-1.743c0.797-0.768,1.448-1.743,2.098-2.601c1.094-1.507,1.951-3.31,2.601-5.023
		c0.65-1.625,1.094-3.25,1.33-4.965c0.266-1.98,0.237-3.9,0.089-5.88c-0.118-1.743-0.384-3.487-0.65-5.201
		c-0.177-1.181-0.502-2.304-0.946-3.398c-0.532-1.418-1.359-2.63-2.246-3.842c-1.33-1.862-2.837-3.664-4.61-5.141
		c-2.808-2.335-6.442-2.985-10.017-3.132c-0.739-0.029-1.478-0.029-2.187,0c-0.118-1.567-0.237-3.103-0.355-4.668
		c-0.31-3.807-0.59-7.612-0.845-11.418c6.055,0.863,12.158,1.48,18.251,1.933c8.038,0.591,16.134,1.27,24.201,1.123
		c8.186-0.178,16.341-0.65,24.496-1.005c6.619-0.295,13.238-0.591,19.887-0.916c9.264-0.425,18.555-1.009,27.847-0.434
		c0.605,1.103,1.766,1.832,3.12,1.935c3.634,0.237,7.269,0.473,10.903,0.68c1.427,0.081,2.859,0.232,4.298,0.337
		c0.014,0.118,0,0.222,0.015,0.343c0.089,0.444,0.148,0.886,0.207,1.33c0,0.06,0.029,0.118,0.029,0.177v-0.029
		c0,0.029,0,0.089,0.029,0.118c-0.013-0.013-0.02-0.027-0.023-0.04c0.03,0.309,0.084,0.618,0.112,0.926
		c-0.029-0.266-0.06-0.562-0.089-0.828c0.059,0.355,0.089,0.71,0.148,1.034c-0.029-0.06-0.029-0.118-0.059-0.207
		c0.237,1.714,0.443,3.427,0.561,5.112c0.148,2.098,0.148,4.196,0.177,6.293c0,1.92-0.089,3.871-0.118,5.792
		c-0.089,3.339-0.207,6.648-0.237,9.988c-0.029,3.694-0.089,7.358-0.178,11.022c-0.059,3.161-0.384,6.324-0.71,9.485
		c-0.266,1.654-0.532,3.28-0.797,4.935c-0.444,2.571-0.916,5.172-0.946,7.742c-0.029,2.335,0.797,4.373,1.685,6.471
		c0.384,0.857,1.359,2.127,1.98,2.748c0.886,0.886,1.891,1.625,2.896,2.393c0.857,0.65,2.187,1.123,3.161,1.478
		c1.064,0.384,2.128,0.68,3.25,0.946c2.098,0.473,4.226,0.71,6.353,1.094c3.221,0.561,6.442,1.181,9.693,1.625
		c5.909,0.768,11.791,0.946,17.759,0.473c5.23-0.384,10.431-1.33,15.691-1.832c8.215-0.797,16.43-1.212,24.645-2.157
		c4.373-0.502,8.776-0.739,13.15-1.359c4.048-0.591,7.151-3.812,8.481-7.535c1.212-3.31,1.743-6.708,2.275-10.166
		c0.768-5.26,0.828-10.55,0.562-15.839c-0.326-6.353-0.562-12.883-2.364-18.971c-0.679-2.275-1.418-4.492-2.039-6.767
		c-0.71-2.482-1.181-5.023-1.654-7.594c-0.444-2.305-0.916-4.61-1.507-6.885c-0.381-1.469-0.917-2.886-1.414-4.317
		c6.585-0.76,13.163-1.482,19.677-2.597c4.284-0.739,8.599-1.478,12.914-2.216c3.221-0.532,6.501-0.946,9.751-1.389
		c8.333-0.828,16.696-1.478,24.998-2.453c8.273-0.975,16.459-2.571,24.614-4.166c7.978-1.567,15.927-3.28,23.757-5.407
		c3.397-0.93,6.756-1.98,10.105-3.061c0.329,3.084,0.684,6.174,0.889,9.272c0.148,2.453,0.326,4.905,0.413,7.358
		c-0.266,0-0.502,0.029-0.739,0.029c-1.3,0.089-2.601,0.413-3.871,0.739c-1.418,0.384-2.837,0.946-4.166,1.565
		c-1.448,0.68-2.777,1.418-4.107,2.335c-2.305,1.625-4.137,3.753-5.644,6.117c-0.768,1.212-1.241,2.571-1.743,3.9
		c-0.679,1.832-0.886,3.842-1.094,5.762c-0.177,1.389-0.06,2.896,0.207,4.255c0.237,1.3,0.591,2.512,1.152,3.723
		c1.181,2.512,2.925,4.699,4.728,6.767c2.009,2.275,4.58,4.284,7.447,5.289c3.192,1.123,6.56,1.27,9.899,0.797
		c3.192-0.473,6.176-1.478,9.101-2.896c1.27-0.65,2.393-1.625,3.398-2.601c1.034-0.975,1.862-2.246,2.63-3.398
		c0.828-1.27,1.448-2.659,2.039-4.048c0.502-1.212,0.916-2.393,1.27-3.634c0.679-2.364,0.797-4.817,0.473-7.24
		c-0.473-3.31-1.27-6.826-3.28-9.574c-2.512-3.339-6.413-4.787-10.49-5.349c0.029-0.532,0-1.094-0.029-1.654
		c-0.029-0.739-0.06-1.478-0.118-2.216c-0.089-1.832-0.207-3.664-0.326-5.496c-0.256-4.052-0.712-8.104-1.142-12.129
		c1.986-0.689,3.981-1.351,5.957-2.061c2.364-0.828,4.699-1.773,6.974-2.777c2.571-1.152,4.994-2.512,7.151-4.315
		c0.768-0.65,1.448-1.241,2.098-1.98c0.621-0.71,1.181-1.478,1.625-2.305c0.65-1.152,1.005-2.393,1.005-3.753
		C471.483,384.233,469.355,381.13,466.933,379.092z M433.542,166.163c0.355,0.177,0.679,0.355,1.034,0.562
		c0.886,0.797,1.654,1.684,2.423,2.601c0.355,0.502,0.65,1.005,0.916,1.507c0.207,0.473,0.355,0.975,0.473,1.448
		c0.148,0.502,0.237,1.063,0.413,2.304l0.118,0.828l0.118,0.857c0.177,1.654,0.207,3.161,0.089,4.581
		c-0.355,1.862-0.739,3.694-1.359,5.467c-0.384,0.768-0.797,1.448-1.3,2.157c-0.165,0.196-0.334,0.385-0.507,0.57
		c-0.046,0.057-0.094,0.114-0.143,0.169c0.023-0.03,0.048-0.063,0.071-0.095c-0.487,0.514-1.002,0.992-1.549,1.454
		c-0.714,0.468-1.409,0.895-2.15,1.28c-0.149,0.077-0.297,0.153-0.451,0.227c-1.478,0.532-2.955,0.886-4.935,1.212
		c-1.418,0.177-2.837,0.266-4.284,0.266h-1.183c-1.005-0.207-1.92-0.413-2.866-0.739c-1.123-0.532-2.157-1.152-3.221-1.862
		c-0.739-0.621-1.418-1.27-2.039-2.009c-0.916-1.3-1.773-2.659-2.512-4.048c-0.413-1.064-0.739-2.098-0.975-3.221
		c-0.06-1.094-0.06-2.127,0.029-3.25c0.295-1.301,0.679-2.541,1.181-3.782c0.088-0.179,0.177-0.356,0.266-0.53
		c0.513-1.005,1.06-1.94,1.714-2.897c0.945-1.123,1.98-2.127,3.161-3.103c0.975-0.679,1.98-1.27,3.043-1.832
		c2.009-0.768,4.018-1.3,6.087-1.832c0.384-0.089,0.739-0.177,1.094-0.295c0.029,0,0.532,0.089,0.532,0.089
		C429.05,164.775,431.354,165.306,433.542,166.163z M102.735,177.067c1.448,0.797,2.866,1.654,4.284,2.571
		c0.65,0.562,1.27,1.123,1.832,1.773c0.416,0.587,0.79,1.173,1.142,1.81c-0.046-0.098-0.091-0.197-0.137-0.303
		c0.053,0.107,0.107,0.222,0.159,0.343c0.066,0.121,0.131,0.241,0.196,0.365c0.207,0.444,0.355,0.916,0.502,1.389
		c0.207,0.65,0.355,1.33,0.444,1.98c0.237,2.808-0.059,5.703-0.413,8.658c-0.148,0.621-0.266,1.27-0.355,1.92
		c-0.266,1.27-0.621,2.424-1.064,3.605c-0.108,0.217-0.218,0.429-0.328,0.639c-0.009,0.023-0.018,0.047-0.027,0.069
		c0.005-0.015,0.011-0.032,0.015-0.047c-0.491,0.933-1.012,1.821-1.61,2.707c-0.473,0.532-0.946,0.975-1.507,1.418
		c-1.183,0.797-2.393,1.448-3.694,2.038l-1.181,0.413c-0.65,0.177-1.3,0.326-1.98,0.444c-0.444,0-0.886,0.029-1.3,0.059
		c-0.68-0.029-1.301-0.059-2.393-0.207c-1.92-0.355-3.782-0.828-5.703-1.507c-1.034-0.502-2.039-1.005-3.074-1.654
		c-0.679-0.561-1.27-1.123-1.862-1.802c-0.561-0.857-1.034-1.743-1.448-2.69c-0.65-1.862-1.034-3.369-1.27-4.905
		c-0.059-0.797-0.059-1.625-0.059-1.92c0.118-0.946,0.295-1.92,0.561-2.837c0.237-0.797,0.532-1.625,1.005-2.777
		c0.326-0.679,0.65-1.33,1.034-1.98c0.505-0.954,1.129-1.815,1.978-2.814c0.11-0.145,0.219-0.29,0.328-0.437h-0.029
		c0.118-0.148,0.237-0.266,0.355-0.413c0.03,0.002,0.061,0.002,0.09,0.004c0.043-0.036,0.077-0.062,0.087-0.062
		c0.413,0,0.768-0.118,1.094-0.355l1.625-1.181c2.335-1.773,4.757-3.605,7.476-4.787c0.413-0.148,0.828-0.266,1.359-0.384
		c0.295-0.029,0.561-0.059,0.828-0.059c0,0,0,0,0.029,0.029C100.784,176.417,101.759,176.683,102.735,177.067z M80.838,324.372
		c0.797,0.177,1.536,0.413,2.304,0.68c0.295,0.118,0.591,0.266,0.886,0.413c0.532,0.266,1.034,0.591,1.507,0.916l0.916,0.916
		c0.473,0.768,0.886,1.536,1.27,2.364c0.532,1.507,0.946,2.985,1.27,4.58c0.118,1.359,0.118,2.659,0,3.931l0.089-0.326l-0.148,1.034
		l-0.148,1.005c-0.266,1.773-0.739,3.576-1.478,5.467c-0.621,1.212-1.27,2.335-2.039,3.458c-0.621,0.71-1.241,1.359-1.98,1.98
		c-0.561,0.384-1.152,0.739-1.773,1.064c-2.009,0.739-3.782,1.241-5.467,1.507c-0.621,0.059-1.241,0.059-1.832,0.059
		c-0.975,0-1.891-0.059-2.837-0.148c-1.241-0.237-2.393-0.502-3.545-0.916c-0.857-0.443-1.654-0.886-2.453-1.418
		c-0.975-0.857-1.832-1.743-2.659-2.748c-0.591-0.916-1.123-1.802-1.596-2.808l-0.326-0.857c-0.326-0.975-0.532-1.92-0.621-2.837
		h0.059c-0.029-0.621-0.029-1.27,0.029-1.98c0.326-1.743,0.797-3.369,1.389-4.994c0.444-0.975,0.946-1.891,1.536-2.808
		c1.3-1.565,2.866-3.074,4.935-4.757c1.448-1.034,2.896-1.951,4.492-2.719c0.621-0.237,1.241-0.413,1.891-0.591
		c0.029-0.029,0.029-0.029,0.029-0.029l0.029,0.029c0.384,0.237,0.828,0.355,1.389,0.355h0.029h1.094
		C78.326,324.194,79.567,324.254,80.838,324.372z M451.153,433.232c0.532,0.266,1.034,0.562,1.567,0.886
		c0.295,0.266,0.561,0.532,0.797,0.797c0.326,0.473,0.591,0.916,0.857,1.389c0.532,1.359,0.916,2.808,1.181,4.433
		c0.148,1.063,0.177,2.127,0.118,3.192c-0.237,1.478-0.71,2.866-1.212,4.226c-0.828,1.951-1.773,3.664-2.866,5.23
		c-0.532,0.621-1.064,1.181-1.685,1.714c-0.768,0.502-1.507,0.946-2.335,1.359c-2.098,0.797-4.078,1.33-6.087,1.654
		c-0.797,0.059-1.596,0.089-2.393,0.089c-0.621,0-1.27-0.029-1.891-0.06c-0.797-0.177-1.536-0.384-2.305-0.621
		c-0.946-0.444-1.802-0.975-2.719-1.596c-1.33-1.152-2.512-2.364-3.634-3.753c-0.71-0.975-1.359-1.951-1.891-3.014
		c-0.266-0.68-0.473-1.359-0.65-2.127c-0.059-1.181-0.059-2.305,0.059-3.487c0.295-1.418,0.68-2.748,1.183-4.078
		c0.502-0.946,1.005-1.802,1.625-2.69c0.679-0.797,1.418-1.507,2.216-2.187c1.33-0.946,2.69-1.685,4.166-2.393
		c1.389-0.502,2.748-0.946,4.137-1.27c0.029,0,0.029,0,0.029,0c0.029,0,0.029,0.029,0.06,0.029c0.502,0.384,1.123,0.591,1.743,0.591
		c1.478,0.029,2.955,0.118,4.433,0.295C447.548,432.197,449.351,432.583,451.153,433.232z M459.22,299.283
		c0.413,0.177,0.828,0.413,1.181,0.679c0.295,0.237,0.532,0.473,0.828,0.828c0.069,0.121,0.136,0.244,0.204,0.365
		c0.02,0.026,0.042,0.052,0.062,0.077c-0.015-0.015-0.03-0.033-0.046-0.049c0.39,0.705,0.758,1.43,1.081,2.177
		c0.118,0.355,0.237,0.71,0.295,1.123c0.118,2.453-0.029,5.052-0.384,7.653c-0.326,1.714-0.68,3.31-1.27,4.905
		c-0.886,1.862-1.832,3.634-2.955,5.378c-0.591,0.71-1.181,1.33-1.891,1.951c-0.413,0.295-0.886,0.561-1.862,1.005
		c-0.502,0.148-0.975,0.266-1.448,0.266l0.148,0.029c-1.064,0.118-2.157,0.178-3.25,0.178c-1.005,0-2.039-0.06-3.043-0.148
		c-2.482-0.444-4.699-1.064-6.856-1.862c-1.123-0.591-2.187-1.241-3.28-1.98c-0.591-0.473-1.123-1.005-1.654-1.596
		c-0.413-0.591-0.768-1.152-1.094-1.802c-0.444-1.094-0.768-2.216-1.034-3.398c-0.089-1.064-0.089-2.039,0-3.103
		c0.208-1.121,0.44-2.172,0.776-3.235c0.046-0.142,0.091-0.285,0.141-0.429c0.502-1.123,1.123-2.127,1.802-3.161
		c1.064-1.27,2.216-2.364,3.516-3.398c1.773-1.301,3.694-2.393,5.792-3.339c1.123-0.444,2.275-0.797,3.516-1.094
		c0.828-0.059,1.685-0.118,2.541-0.148h0.118c0,0,0,0,0.029,0l1.034,0.237C454.552,297.895,456.945,298.427,459.22,299.283z
		 M225.504,38.955c0.013-0.013,0.026-0.026,0.037-0.037c0.056-0.075,0.112-0.15,0.169-0.225c0.033-0.042,0.066-0.083,0.098-0.124
		c0.053-0.054,0.107-0.107,0.159-0.159c1.962-1.983,4.002-3.915,6.046-5.845l1.685-1.625c5.319-5.054,10.579-10.992,16.046-18.084
		c0.768-0.975,1.536-1.98,2.393-2.866c0.089,0,0.621,0.177,0.65,0.177c2.186,1.034,4.196,2.423,6.117,3.753l0.857,0.591
		c1.27,0.857,2.512,1.773,3.694,2.777c0.148,0.089,0.266,0.207,0.413,0.295l-0.561-0.502c0.295,0.237,0.561,0.502,0.857,0.739
		c0.059,0.029,0.089,0.089,0.148,0.118c-0.013,0-0.025-0.006-0.037-0.015c2.288,1.999,4.609,4.262,7.337,7.195
		c2.896,3.043,5.792,6.087,8.835,9.012l2.335,2.216c1.951,1.862,3.9,3.694,5.792,5.614l8.333,8.658l1.27,1.3
		c2.482,2.601,4.965,5.141,7.535,7.653c2.837,2.807,5.792,5.467,8.776,8.067c6.271,5.564,12.832,10.598,17.877,14.463
		c-0.001,0.001-0.001,0.004-0.002,0.005c0.02,0.015,0.041,0.032,0.062,0.047c-1.33,2.807-2.837,5.791-4.757,8.481
		c0,0.029-0.502,0.561-0.502,0.591c0,0-0.797,0.355-0.828,0.355c-0.252-0.07-0.473-0.176-0.711-0.265
		c-0.151-0.071-0.301-0.142-0.448-0.219c-0.108-0.044-0.213-0.09-0.317-0.136c0.073,0.027,0.146,0.055,0.219,0.084
		c-0.651-0.349-1.284-0.76-1.933-1.236c-1.064-0.857-2.069-1.743-3.074-2.63c-1.951-1.684-3.753-2.512-5.998-2.512
		c-0.029,0-0.06,0-0.089,0c-0.946,0.089-1.832,0.355-2.601,0.797c-0.828,0.473-1.389,1.241-2.246,2.335
		c-0.797,1.005-1.478,2.127-2.127,3.25c-1.241,2.216-2.393,4.432-3.369,6.767l-1.832,4.521l-0.768,1.832
		c-0.71,1.567-1.448,3.043-2.393,4.492c-0.413,0.444-0.857,0.886-1.359,1.3c-0.355,0.237-0.71,0.444-1.094,0.621
		c-0.178,0.06-0.356,0.118-0.535,0.174c-0.049,0.022-0.098,0.043-0.144,0.062c0.023-0.014,0.047-0.026,0.07-0.039
		c-0.331,0.102-0.667,0.191-1.016,0.245c-0.295,0.029-0.591,0.059-1.241,0.059c-0.177,0-0.413,0-0.679,0
		c-1.094-0.177-2.069-0.444-3.074-0.768c-1.005-0.502-1.92-1.064-2.866-1.684c-0.71-0.621-1.33-1.241-1.951-1.98
		c-1.625-2.275-2.985-4.757-4.196-7.565l-0.502-1.181l-0.502-1.181c-0.532-1.183-1.094-2.335-1.773-3.428
		c-0.473-0.797-1.123-1.536-1.773-2.275c-0.443-0.413-0.886-0.797-1.359-1.152l0.06-0.059l-0.975-0.384
		c-0.473-0.237-1.005-0.413-1.684-0.532c-0.295-0.059-0.621-0.089-0.975-0.089c-1.241,0-2.423,0.502-3.427,0.975l-1.389,1.005
		c-0.828,0.621-1.536,1.33-2.275,2.098c-1.359,1.448-2.659,3.369-3.989,5.851c-1.567,2.985-2.541,6.264-3.427,9.396
		c-0.562,1.98-1.123,3.989-1.654,5.998l-0.71,2.69c-1.063,3.989-2.186,8.126-3.723,12.057c-0.384,0.886-0.797,1.773-1.27,2.63
		c-0.444,0.916-1.034,1.773-1.654,2.63c-0.473,0.561-0.975,1.094-1.536,1.625c-0.591,0.413-1.181,0.768-1.802,1.094
		c-0.65,0.237-1.3,0.413-1.98,0.591h-1.063h-1.064c-1.241-0.295-2.424-0.65-3.605-1.094c-1.152-0.561-2.246-1.212-3.31-1.98
		c-1.005-0.857-1.891-1.773-2.719-2.807c-1.183-1.684-2.187-3.487-3.161-5.614c-0.532-1.33-0.975-2.659-1.33-4.078
		c-0.384-1.389-0.621-2.896-0.828-4.344c-0.384-3.576-0.591-7.181-0.797-10.786l-0.089-1.33c-0.118-2.571-0.326-5.289-1.034-7.919
		c-0.237-0.797-0.768-2.246-1.714-3.221c-0.355-0.444-0.768-0.828-1.3-1.212c-0.828-0.473-1.536-0.797-2.453-1.034
		c-0.384-0.089-0.797-0.148-1.212-0.148c-1.448,0-2.808,0.591-4.137,1.152l-0.857,0.326c-2.808,1.181-5.289,2.453-7.535,3.931
		c-2.364,1.507-4.521,3.25-6.708,4.994l-3.398,2.69l-0.65,0.532l-0.739,0.532c-0.621,0.473-1.241,0.916-1.891,1.359
		c-0.808,0.548-1.67,0.957-2.528,1.356c-0.169,0.059-0.336,0.116-0.503,0.171c-0.053,0.023-0.107,0.047-0.16,0.07
		c0.041-0.02,0.081-0.039,0.121-0.057c-0.872,0.285-1.728,0.516-2.663,0.707c-0.384,0.029-0.797,0.029-1.183,0.029
		c-0.384,0-0.797,0-1.684-0.089c-0.413-0.177-0.828-0.384-1.212-0.621l-0.309-0.369c-0.026-0.026-0.05-0.05-0.075-0.075
		c-0.028-0.035-0.054-0.071-0.078-0.109l-0.306-0.364c-0.118-0.326-0.237-0.679-0.326-1.094c-0.029-0.444,0-0.916,0.029-1.448
		c0.413-1.92,0.975-3.694,1.803-5.791c3.132-6.826,7.476-12.706,12.528-19.266l2.541-3.103l1.389-1.714
		c0.473-0.561,0.768-1.123,0.768-1.891c0-0.354-0.073-0.714-0.218-1.114c0.005-0.005,0.008-0.009,0.013-0.014
		c-0.011-0.028-0.02-0.055-0.032-0.083c0.009-0.009,0.018-0.02,0.026-0.029v-0.001c2.827-3.242,5.598-6.51,8.307-9.869
		C213.206,54.83,219.368,46.892,225.504,38.955z M188.015,108.798c-0.081,0.036-0.156,0.09-0.237,0.126
		C187.76,108.907,187.89,108.851,188.015,108.798z M180.331,108.512c-0.027-0.054-0.054-0.109-0.081-0.186
		c0.009,0.011,0.022,0.018,0.022,0.037C180.302,108.424,180.331,108.482,180.331,108.512z M85.034,450.252
		c0.775,0.194,1.53,0.39,2.282,0.616c-0.033-0.018-0.064-0.036-0.095-0.055c0.035,0.021,0.073,0.041,0.11,0.059
		c0.16,0.048,0.321,0.096,0.481,0.148c0.473,0.237,0.886,0.473,1.33,0.768c1.3,1.152,2.364,2.423,3.458,3.782
		c0.561,0.797,1.094,1.625,1.567,2.512c0.502,1.418,0.797,2.866,1.034,4.403c0.266,2.335,0.532,4.817,0.326,7.447
		c-0.266,1.181-0.561,2.335-0.975,3.458c-0.679,1.596-1.478,3.074-2.423,4.55c-0.739,0.857-1.507,1.625-2.423,2.364
		c-1.005,0.71-2.069,1.359-3.25,1.92c-1.181,0.473-2.393,0.828-3.753,1.123c-0.561,0.059-1.094,0.118-2.098,0.118
		c-0.886,0-1.802-0.118-2.275-0.177c-1.773-0.326-3.427-0.828-5.052-1.418c-1.536-0.65-2.985-1.478-4.699-2.69l-0.029-0.029
		c0,0-0.029-0.029-0.06-0.06c-0.502-0.413-0.975-0.857-1.418-1.3c-0.473-0.444-0.886-0.916-1.536-1.714
		c-0.857-1.241-1.567-2.512-2.216-3.9c-0.473-1.241-0.828-2.482-1.094-3.842c-0.059-0.857-0.089-1.684-0.029-2.571
		c0.295-1.596,0.71-3.103,1.241-4.61c0.797-1.714,1.773-3.339,3.043-5.083c1.478-1.773,2.985-3.28,4.58-4.521
		c0.621-0.444,1.241-0.857,1.92-1.27c2.364-0.118,4.757-0.266,7.121-0.266C81.755,450.016,83.38,450.076,85.034,450.252z
		 M312.359,490.168c-0.447,2.69-0.897,4.556-1.596,6.455c0.069-0.096,0.138-0.192,0.207-0.279c-0.073,0.11-0.146,0.219-0.227,0.329
		c-0.033,0.087-0.064,0.174-0.098,0.262l-0.828,0.797c-1.241,0.444-2.659,0.679-4.196,0.828l-1.123,0.237l-2.216,0.266
		c-2.807,0.355-5.585,0.71-8.421,1.005c-4.048,0.384-8.126,0.65-12.233,0.857c-3.782,0.177-7.565,0.413-11.347,0.768l-4.373,0.413
		l-4.255,0.413c-2.482,0.207-4.965,0.326-7.447,0.326c-3.043,0-5.909-0.177-8.51-0.473c-3.547-0.532-6.915-1.359-10.904-2.482
		c-2.63-0.739-5.319-1.507-7.949-2.453c-0.406-0.192-0.814-0.418-1.321-0.896c-0.103-0.062-0.204-0.126-0.304-0.198
		c0,0,0-0.029-0.029-0.06c-0.014-0.042-0.028-0.084-0.042-0.126c-0.082-0.089-0.166-0.183-0.254-0.287
		c-0.059-1.773,0.148-3.545,0.355-5.319l0.177-1.714c0.237-2.305,0.413-4.61,0.473-6.914c0.148-4.876,0.059-9.722-0.089-14.597
		l-0.089-3.161l-0.059-1.832c-0.089-3.043-0.207-6.117-0.207-9.16l0.029-3.605v-3.576c0.029-4.344-0.384-8.628-0.71-12.057
		l-0.033-0.733c-0.018-0.142-0.039-0.282-0.057-0.424c0.011,0.001,0.02,0.002,0.03,0.004c0-0.029,0-0.059,0-0.089h0.005
		l-0.005-0.089l2.63,0.355c2.098,0.266,4.137,0.502,6.264,0.621c1.951,0.089,3.9,0.118,5.88,0.148
		c2.157,0.059,4.315,0.059,6.442,0.059l5.171,0.029l4.048,0.029c2.453,0,4.905-0.029,7.358-0.177
		c2.807-0.118,5.585-0.326,8.658-0.561l2.659-0.207l2.926-0.177c3.014-0.178,5.998-0.355,8.983-0.71
		c5.813-0.619,11.627-1.505,18.029-2.508l0,0c0.009-0.001,0.018-0.002,0.026-0.005h0.029l0.118,0.118l0.413,1.3
		c0.532,1.596,1.034,3.192,1.389,4.787c0.591,2.246,0.945,4.521,1.3,6.797l0.237,1.478c0.444,2.601,1.005,5.171,1.714,7.771
		l0.65,2.246l0.384,1.3c0.68,2.246,1.33,4.491,1.714,6.856c0.295,2.335,0.502,4.699,0.679,7.063l0.118,1.625
		c0.148,1.685,0.295,3.369,0.355,5.052c0.089,2.512,0.089,4.994,0.029,7.505C312.89,485.676,312.625,487.922,312.359,490.168z
		 M448.494,390.705c-5.585,2.187-10.963,4.107-16.459,5.88c-5.733,1.832-11.465,3.25-17.345,4.639
		c-11.318,2.69-22.753,4.433-32.476,5.822c-6.59,0.621-13.179,1.094-19.828,1.567l-6.412,0.473
		c-4.433,0.355-8.894,0.975-13.327,1.596l-12.499,1.714l-0.326,0.029c-0.413,0.029-0.828,0.089-1.241,0.118h-0.029
		c-5.673,0.561-11.318,1.005-17.05,1.418c-3.694,0.266-7.387,0.621-11.081,0.975l-6.855,0.679
		c-5.438,0.502-10.874,0.768-16.312,1.034l-2.896,0.148c-5.319,0.295-10.697,1.123-15.928,1.891l-2.541,0.413l-2.069,0.237
		c-2.866,0.326-5.762,0.65-8.658,1.094l-5.496,0.857l-5.496,0.886l-2.985,0.355c-0.621,0.06-1.241,0.089-1.891,0.118l-0.473-0.089
		c-0.033,0.001-0.066,0-0.098,0.001l-11.19-1.828l-5.467-0.857l-5.909-0.975l-5.909-0.946c-5.733-0.946-11.997-1.389-19.149-1.389
		c-1.478,0-2.955,0-4.433,0.06c-8.126,0.177-16.223,0.444-24.319,0.886c-3.842,0.207-7.683,0.473-11.524,0.768
		c-4.167,0.326-8.362,0.621-12.559,0.857c-4.787,0.237-9.515,0.384-14.302,0.444h-1.212c-3.427,0-6.885-0.118-10.313-0.207
		l-2.246-0.06c-3.398-0.089-6.796-0.177-10.164-0.444c-3.96-0.266-7.889-0.65-11.849-1.123c-4.403-0.797-8.422-1.714-12.263-2.808
		l-0.828-0.237l-0.502-0.237c-0.118-0.029-0.207-0.06-0.326-0.089l0.029-0.029l-0.059-0.029c2.688-1.832,5.319-3.723,7.949-5.614
		l1.389-0.975c6.264-4.521,12.825-9.515,19.473-14.834l1.123-0.886c3.014-2.393,6.028-4.757,8.954-7.269
		c3.339-2.866,6.619-5.733,9.899-8.628c5.407-4.728,11.111-10.077,17.937-16.785c9.958-9.84,19.917-20.714,31.382-34.248
		c4.255-4.994,8.628-10.401,14.155-17.611l1.005-1.3c2.098-2.69,4.196-5.378,6.117-8.155c1.92-2.748,3.782-5.496,5.496-8.362
		c1.181-1.98,2.305-4.137,3.369-6.619c0.502-1.123,0.946-2.246,1.33-3.398c0.207-0.65,0.266-1.389,0.326-2.098l0.06-0.886
		c0.148-1.212-0.295-2.453-1.241-3.547c-1.094-1.212-2.601-1.951-4.226-1.951h-0.029c-0.71,0.029-1.389,0.118-2.069,0.207
		c-0.71,0.207-1.448,0.561-2.157,0.916l-0.679,0.326l-0.857,0.384l-1.951,0.886c-1.152,0.532-2.364,1.063-3.576,1.565l-0.739,0.266
		c-3.842,1.448-7.86,2.925-11.938,3.989c-4.935,1.33-9.899,2.571-14.894,3.782c-4.728,1.152-9.485,2.246-14.243,3.28
		c-4.817,0.975-9.633,1.773-14.479,2.541c-5.703,0.621-11.376,1.212-17.109,1.625c-5.792,0.413-11.554,0.768-17.316,1.094
		c-3.9,0.237-7.831,0.355-11.731,0.355c-3.369,0-6.737-0.089-10.106-0.355c-0.768-0.029-1.507-0.06-2.275-0.118
		c0.029-0.029,0.059-0.029,0.089-0.059c-0.029,0-0.089,0-0.118,0c2.985-1.567,5.969-3.161,8.924-4.787
		c8.186-4.521,14.657-8.57,20.39-12.795c13.386-9.751,27.599-20.419,40.926-32.357c10.815-9.633,21.6-20.537,34.987-35.371
		l1.181-1.3c5.054-5.585,10.077-11.17,14.952-16.902c6.353-7.418,11.14-13.564,15.1-19.414c0.797-1.181,1.596-2.335,2.335-3.516
		c0.739-1.181,1.389-2.364,1.951-3.605c0.591-1.33,1.034-2.453,1.034-3.812c0-2.808-2.63-5.467-5.496-5.467
		c-1.654,0-3.28,0.295-4.935,0.562l-1.565,0.266c-4.226,0.71-8.422,1.418-12.677,2.038c-7.358,0.591-13.504,0.886-19.355,0.886
		h-2.896h-2.896c-4.787,0-10.224-0.029-15.276-0.562c-1.034-0.089-2.098-0.177-3.132-0.295c0,0-0.059,0.029-0.148,0.029
		c-0.148,0-0.413-0.029-0.444-0.029c-5.762-0.945-11.791-2.393-17.877-4.315l-0.916-0.295c-2.009-0.621-4.018-1.241-6.028-1.98
		c-0.326-0.118-0.621-0.207-0.946-0.326c0.029,0,0.029-0.029,0.059-0.029c-0.029,0-0.059-0.029-0.089-0.029l2.837-1.714
		c3.074-1.891,6.087-3.842,9.042-5.94c7.505-5.319,14.774-10.963,21.571-16.252c4.994-3.9,9.84-8.037,14.657-12.175l4.048-3.487
		c1.832-1.536,3.576-3.132,5.319-4.699l3.161-2.866c2.127-1.891,4.255-3.812,6.382-5.703c0.488-0.467,0.977-0.946,1.465-1.423
		c-0.035,0.07-0.07,0.141-0.105,0.211c0.029-0.059,0.089-0.089,0.148-0.148c-0.857,1.596-1.567,3.28-2.305,4.994
		c-0.768,1.862-1.3,3.812-1.507,5.556c-0.148,0.857-0.177,1.684-0.089,2.541c0.029,1.005,0.355,1.951,0.65,2.866
		c0.739,1.891,2.157,3.014,3.458,3.871c0.532,0.266,1.064,0.532,1.625,0.739c0.886,0.266,1.951,0.532,3.605,0.621
		c1.567,0,3.161-0.207,4.965-0.621c3.28-0.828,6.117-2.808,8.717-4.787l4.403-3.369c1.773-1.359,3.634-2.659,5.496-3.871
		c1.649-1.064,3.499-1.999,5.548-2.887c0.664-0.276,1.328-0.554,2.047-0.747c0.532-0.207,1.034-0.384,1.567-0.532
		c0,0,0,0.029,0.029,0.029c0.029,0.089,0.06,0.118,0.089,0.177c0.029,0,0.059,0,0.089,0c0.177,0.561,0.326,1.094,0.473,1.654
		c0.059,0.237,0.118,0.444,0.177,0.679c0.237,2.423,0.326,4.876,0.413,7.358l0.118,2.453c0.178,5.23,0.502,9.633,1.478,13.977
		c0.591,2.896,1.891,5.703,3.043,8.038c1.359,2.659,3.192,5.112,5.525,7.298c1.862,1.773,4.226,3.221,6.797,4.196
		c1.448,0.561,3.014,1.094,4.817,1.3c0.71,0.089,1.389,0.148,2.069,0.148c0.828,0,1.685-0.089,2.541-0.237
		c2.512-0.413,4.817-1.448,6.885-3.043c2.571-1.951,4.284-4.699,5.525-6.856c0.532-0.916,0.916-1.951,1.478-3.28
		c0.68-1.684,1.27-3.339,1.803-5.054c0.621-1.98,1.094-3.989,1.565-5.998l0.828-3.516l0.857-3.545l0.502-2.246
		c0.797-3.487,1.596-7.121,2.985-10.55c0.916-2.009,1.951-3.782,3.132-5.438c0.413-0.502,0.886-0.975,1.359-1.418
		c-0.118,0.059-0.237,0.118-0.355,0.148c0.177-0.118,0.384-0.207,0.562-0.266c0,0.029,0,0.029-0.029,0.029s-0.029,0.029-0.059,0.029
		c0.029,0,0.059,0,0.118,0c0.022-0.022,0.044-0.043,0.08-0.066c-0.028,0.011-0.06,0.018-0.08,0.036c0-0.029,0.029-0.029,0.029-0.029
		c0.029,0,0.059-0.029,0.089-0.029c0.059,0,0.118,0.029,0.148,0.029c0.059,0,0.118,0.029,0.148,0.059c0.029,0,0.029,0,0.059,0
		s0.029,0,0.06,0c0.059,0,0.059,0,0.089,0c0.266,0.207,0.502,0.444,0.71,0.71c0.768,1.034,1.389,2.187,2.009,3.634l0.384,0.886
		c1.123,2.777,2.275,5.555,3.694,8.215c1.241,2.305,2.777,4.226,4.639,5.851c1.803,1.596,4.018,2.807,6.737,3.694
		c0.886,0.295,1.862,0.384,2.807,0.473l0.797,0.089c0.326,0.059,0.621,0.059,0.946,0.059c1.359,0,2.808-0.326,4.344-0.768
		c0.561-0.237,1.123-0.444,1.654-0.679c0.502-0.266,1.094-0.591,1.625-1.034c0.975-0.71,1.862-1.567,2.896-2.808
		c1.951-2.423,3.161-5.378,4.315-8.244l0.65-1.536c1.507-3.516,2.896-6.471,4.668-9.309c0.148-0.266,0.295-0.502,0.444-0.739
		c0.029,0,0.029,0,0.029,0c0-0.029-0.029-0.029-0.029-0.029h0.029l0.029-0.029l0.857,0.739c1.773,1.567,3.605,3.192,5.703,4.403
		c0.739,0.413,1.536,0.71,2.305,1.005l1.212,0.326l1.27,0.118c0.384,0,0.797-0.029,1.212-0.148c1.212-0.148,2.098-0.444,2.896-0.857
		c1.27-0.71,2.364-1.596,3.369-2.777c2.098-2.423,3.664-5.319,5.289-8.54l0.06-0.059c0-0.029,0-0.029,0.029-0.059h0.029l0.029,0.029
		c0.001-0.001,0.001-0.004,0.002-0.005c3.102,2.215,6.234,4.343,9.366,6.5l4.846,3.369c3.723,2.541,7.447,5.052,11.229,7.535
		c3.132,2.039,6.501,3.812,9.751,5.525l0.679,0.384c2.808,1.448,5.703,2.777,8.599,4.078l2.157,1.005l2.305,1.064
		c3.427,1.567,6.856,3.132,10.342,4.58l3.605,1.448l2.541,1.064c1.33,0.532,2.69,0.975,4.078,1.418l1.625,0.561
		c0.916,0.326,1.862,0.591,2.807,0.916c0.207,0.029,0.384,0.089,0.591,0.148c-0.029,0-0.029,0.029-0.059,0.029
		c0.029,0,0.059,0.029,0.089,0.029c-1.625,0.797-3.25,1.596-4.905,2.364c-5.23,2.571-10.49,5.023-15.809,7.358l-1.565,0.65
		c-3.634,1.448-7.387,2.985-11.17,4.018c-4.905,1.389-9.78,2.719-14.745,3.842l-3.96,0.946c-3.782,0.886-7.565,1.773-11.376,2.571
		c-4.965,1.034-9.899,1.92-14.892,2.659l-1.625,0.148c-3.576,0.384-7.151,0.768-10.756,1.3c-0.857,0.118-1.714,0.266-2.541,0.413
		c-0.621,0.118-1.181,0.237-1.802,0.355c-1.064,0.266-2.069,0.797-3.103,1.654c-1.034,0.886-1.654,1.773-1.891,3.161
		c-0.177,0.916-0.355,1.862,0,2.719c0.502,1.27,0.946,2.187,1.685,3.221c0.71,1.005,1.565,1.891,2.393,2.777l0.561,0.561
		c6.412,6.59,12.352,12.175,18.144,17.138c2.926,2.512,5.791,5.083,8.688,7.653c3.221,2.866,6.412,5.762,9.722,8.539
		c6.324,5.349,12.648,10.697,18.912,16.104c5.969,5.141,12.057,9.958,19.385,15.573c7.418,5.703,14.272,10.668,20.921,15.189
		c3.161,2.127,6.382,4.137,9.633,6.146c3.28,2.039,6.678,4.137,10.195,5.909c3.043,1.536,6.146,3.043,9.278,4.462
		c0.561,0.266,1.123,0.502,1.685,0.739c-0.029,0-0.029,0-0.059,0.029c0.029,0,0.059,0.029,0.089,0.029
		c-1.803,0.532-3.605,1.034-5.407,1.536c-3.487,0.975-7.003,1.92-10.55,2.808l-7.121,1.802c-5.525,1.418-11.081,2.808-16.577,4.255
		l-4.61,1.241c-6.382,1.714-13.001,3.487-19.591,4.846l-2.925,0.591c-7.299,1.478-14.627,2.985-21.984,4.344l-3.516,0.621
		c-2.423,0.444-4.846,0.886-7.802,1.507c-2.157,0.443-4.876,0.975-6.058,2.985c-0.886,1.507-0.916,3.25-0.06,5.319
		c1.034,2.453,2.482,4.492,4.315,6.797c1.005,1.27,2.157,2.423,3.28,3.605l1.359,1.389l1.951,2.039l1.98,2.038l2.275,2.393
		c2.009,2.098,3.989,4.196,6.058,6.235c5.998,5.969,12.499,11.436,18.055,16.015l6.324,5.289c4.226,3.516,8.422,7.063,12.736,10.49
		c10.342,8.244,21.276,15.602,31.559,22.339c5.171,3.369,10.401,6.648,15.72,9.811c1.891,1.152,3.842,2.216,5.762,3.369
		c0.326,0.148,0.621,0.326,0.946,0.502c0,0-0.029,0-0.029,0.029c0,0,0.029,0.029,0.06,0.029
		C450.355,389.848,449.44,390.29,448.494,390.705z"/>
	<path style="fill:#161616;" d="M176.195,226.71l0.946-1.005l0.946-1.034c1.33-1.418,2.659-2.837,4.018-4.196
		c0.355-0.326,0.532-0.797,0.532-1.3c0-0.473-0.177-0.946-0.532-1.27c-0.326-0.326-0.768-0.502-1.27-0.502
		c-0.473,0-0.946,0.177-1.27,0.502c-2.304,2.335-4.521,4.728-6.737,7.121c-0.561,0.561-1.063,1.181-1.565,1.832l-0.502,0.621
		l-1.418,1.684l-1.418,1.685c-0.502,0.621-1.005,1.27-1.478,1.951l-0.679,0.916c-0.739,0.946-1.478,1.92-2.187,2.866
		c-0.797,1.123-1.567,2.246-2.335,3.398l-0.059-0.029l-0.473,0.857c-0.207,0.326-0.384,0.679-0.562,1.123
		c-0.089,0.413-0.148,0.828-0.207,1.27c0,0.502,0.237,0.916,0.473,1.418c0.237,0.532,0.857,0.886,1.536,0.886
		c0.355,0,0.679-0.089,0.946-0.237c0.384-0.237,0.71-0.65,0.828-1.094c0.118-0.413,0.089-0.739-0.029-1.181
		c0.326-0.621,0.71-1.183,1.094-1.773l0.621-0.916l0.857-1.212l0.857-1.212c0.828-1.152,1.685-2.275,2.571-3.398l0.768-1.034
		l1.891-2.216l2.955-3.576C175.574,227.33,175.899,227.006,176.195,226.71z"/>
	<path style="fill:#161616;" d="M187.985,228.365c-0.118-0.473-0.444-0.916-0.886-1.181c-0.207-0.118-0.444-0.207-0.916-0.207
		c-0.178,0-0.355,0.029-0.591,0.029c-0.502,0.148-0.828,0.444-1.181,0.916c-2.009,2.659-3.96,5.319-5.909,8.008l-0.532,0.886
		l-0.413,0.621c-0.532,0.886-1.094,1.773-1.654,2.63c-0.532,0.886-1.034,1.832-1.685,3.103c-0.621,1.241-1.152,2.689-1.654,4.55
		c-0.237,0.975,0.355,1.98,1.33,2.275l0.443,0.118v-0.059c0.828,0,1.536-0.562,1.803-1.389l0.237-0.739l0.237-0.739
		c0.797-1.891,1.832-3.842,3.192-5.909l1.507-2.424c0.207-0.355,0.413-0.679,0.65-1.005c1.92-2.719,3.842-5.378,5.851-7.978
		C188.104,229.459,188.104,228.808,187.985,228.365z"/>
	<path style="fill:#161616;" d="M194.752,231.586c-0.295-0.148-0.621-0.207-0.916-0.207c-0.679,0-1.3,0.326-1.567,0.857
		c-1.714,3.398-3.398,6.826-5.052,10.224c-0.621,1.27-1.183,2.541-1.743,3.812c-0.68,1.536-1.27,3.103-1.832,4.668
		c-0.118,0.384-0.089,0.828,0.118,1.241c0.237,0.473,0.68,0.857,1.152,1.005l0.473,0.118v-0.06c0.797,0,1.478-0.532,1.773-1.359
		c0.502-1.418,1.064-2.808,1.478-3.753c0.739-1.654,1.478-3.309,2.275-4.934c1.478-3.043,2.985-6.087,4.492-9.101
		C195.875,233.152,195.609,232.118,194.752,231.586z"/>
	<path style="fill:#161616;" d="M198.297,257.826l0.473,0.118v-0.059c0.768,0,1.448-0.532,1.773-1.359
		c1.094-3.044,2.305-6.058,3.547-9.072l0.413-0.946c1.951-4.462,3.9-8.894,5.909-13.327c0.207-0.502,0.295-0.916,0.177-1.418
		c-0.118-0.444-0.444-0.857-0.828-1.094c-0.207-0.118-0.444-0.207-0.857-0.207c-0.148,0-0.326,0.029-0.532,0.029
		c-0.384,0.118-0.916,0.413-1.123,0.828l-0.71,1.625c-3.31,7.358-6.737,14.952-9.515,22.635c-0.118,0.384-0.089,0.828,0.118,1.241
		C197.382,257.294,197.824,257.678,198.297,257.826z"/>
	<path style="fill:#161616;" d="M220.134,235.073c0.148-0.413,0.118-0.886-0.118-1.33c-0.266-0.502-0.71-0.886-1.714-1.064
		c-0.797,0-1.536,0.562-1.862,1.389l-2.127,5.909l-2.157,5.94c-0.561,1.567-1.094,3.161-1.596,4.757
		c-0.237,0.739-0.444,1.478-0.65,2.246c-0.177,0.621-0.326,1.241-0.444,1.891c-0.207,0.916-0.237,1.92-0.237,2.837
		c-0.029,0.473,0.148,0.916,0.473,1.241c0.355,0.384,0.828,0.561,1.33,0.561c0.975,0,1.773-0.797,1.802-1.802v-0.975
		c0.148-0.591,0.295-1.152,0.444-1.714l0.237-0.797l0.266-0.828l0.326-1.064l0.355-1.063c0.532-1.654,1.094-3.31,1.685-4.965
		L220.134,235.073z"/>
	<path style="fill:#161616;" d="M232.014,238.235c0.118-0.444,0.059-0.916-0.177-1.33c-0.237-0.444-0.65-0.768-1.625-0.946
		c-0.768,0-1.478,0.502-1.743,1.3l-1.536,4.699c-1.536,4.728-3.103,9.427-4.462,14.213c-0.118,0.444-0.029,0.946,0.207,1.359
		c0.237,0.413,0.621,0.71,1.094,0.857l0.419,0.131c0.018,0,0.036,0.002,0.054,0.002v-0.074c0.797,0,1.536-0.532,1.773-1.33
		c1.536-5.438,3.31-10.815,5.083-16.193L232.014,238.235z"/>
	<path style="fill:#161616;" d="M247.675,239.565c-0.502,0-0.946,0.177-1.27,0.502c-0.355,0.326-0.502,0.739-0.532,1.301
		l-0.266,3.309c-0.266,3.487-0.562,6.974-0.768,10.461c-0.029,0.444,0.118,0.857,0.444,1.212c0.355,0.384,0.886,0.591,1.359,0.591
		c1.005,0,1.743-0.739,1.802-1.803c0.237-3.487,0.502-7.003,0.797-10.49l0.237-3.28c0.059-0.413-0.118-0.857-0.413-1.183
		C248.71,239.8,248.177,239.565,247.675,239.565z"/>
	<path style="fill:#161616;" d="M160.119,358.264c4.344-5.585,8.215-10.046,12.854-13.829l0.71-0.502
		c0.621-0.444,1.241-0.828,2.098-1.181c0.975-0.295,1.536-1.3,1.27-2.246c-0.207-0.739-0.857-1.27-1.98-1.27
		c-0.089,0-0.148,0-0.237,0c-1.123,0.355-2.038,0.946-2.955,1.536c-0.975,0.65-1.891,1.448-3.28,2.659
		c-1.123,0.946-2.128,1.98-3.132,3.014l-0.591,0.621c-1.478,1.596-2.896,3.221-4.315,4.905c-3.043,3.634-5.851,7.476-8.215,10.756
		c-3.812,5.26-7.24,10.047-10.431,15.1c-0.237,0.413-0.326,0.886-0.207,1.33c0.118,0.502,0.444,0.916,0.857,1.152
		c0.266,0.148,0.591,0.237,0.916,0.237c0.621,0,1.241-0.326,1.567-0.857c1.064-1.684,2.128-3.339,3.25-4.994l1.359-2.009
		c0.621-0.916,1.241-1.832,1.891-2.748c1.33-1.802,2.63-3.576,3.931-5.438C156.928,362.52,158.376,360.54,160.119,358.264z"/>
	<path style="fill:#161616;" d="M173.151,361.072l1.094-1.92c1.152-2.009,2.393-3.931,3.605-5.88l1.034-1.596
		c0.295-0.473,0.384-1.064,0.237-1.654c-0.148-0.591-0.532-1.094-1.034-1.389c-0.355-0.207-0.739-0.295-1.094-0.295
		c-0.768,0-1.507,0.413-1.951,1.094l-0.71,1.152c-1.27,1.98-2.541,3.96-3.753,5.998l-0.946,1.684l-2.246,3.9l-3.664,6.382
		c-0.413,0.739-0.857,1.448-1.241,2.246l-2.659,5.674l-0.65,1.389c-0.443,0.916-0.886,1.832-1.3,2.777l-0.473,1.152l-1.685,4.018
		c-0.71,1.773-1.33,3.576-1.862,5.407c-0.266,0.916,0.326,1.98,1.3,2.275l0.468,0.117c0.001,0,0.004,0,0.005,0v-0.087
		c0.326,0,0.65-0.089,0.946-0.237c0.502-0.295,0.71-0.71,0.857-1.094c0.237-0.65,0.473-1.3,0.621-1.685
		c1.152-2.69,2.424-5.407,3.782-8.333c0.413-0.946,0.857-1.862,1.33-2.777l0.71-1.389l2.571-5.23c0.266-0.621,0.621-1.212,1.3-2.364
		l3.458-5.969L173.151,361.072z"/>
	<path style="fill:#161616;" d="M186.981,358.501c0.473-0.975,0.207-1.98-0.65-2.512c-0.237-0.148-0.591-0.237-0.916-0.237
		c-0.68,0-1.3,0.355-1.567,0.886l-4.078,8.362l-4.107,8.362c-2.453,5.083-4.757,10.224-6.945,15.425
		c-0.148,0.413,0,1.034,0.207,1.418c0.237,0.384,0.65,0.71,1.094,0.828l0.473,0.118v-0.059c0.326,0,0.621-0.089,0.916-0.237
		c0.443-0.295,0.65-0.621,0.857-1.123c0.148-0.384,0.326-0.768,0.326-0.768c3.753-8.865,8.097-17.641,12.263-26.152L186.981,358.501
		z"/>
	<path style="fill:#161616;" d="M200.484,353.301c-0.207-0.384-0.591-0.679-1.536-0.886c-0.384,0-0.679,0.06-0.945,0.237
		c-0.444,0.266-0.65,0.65-0.857,1.094l-2.216,5.438c-1.802,4.373-3.634,8.746-5.407,13.12l-0.828,2.038
		c-2.038,4.965-4.078,9.929-5.822,15.011c-0.118,0.413-0.089,0.857,0.148,1.27c0.237,0.473,0.679,0.828,1.152,0.975l0.444,0.118
		v-0.059c0.797,0,1.507-0.532,1.802-1.359c1.832-5.378,3.989-10.637,6.146-15.898l0.473-1.152l4.462-10.874l3.192-7.683
		C200.839,354.276,200.721,353.685,200.484,353.301z"/>
	<path style="fill:#161616;" d="M209.113,360.836c-0.739,0-1.596,0.444-1.773,1.3c-0.65,2.896-1.389,5.791-2.157,8.717
		c-0.148,0.621-0.384,1.3-0.768,2.423l-0.355,1.183l-0.797,2.364l-0.562,1.685c-0.591,1.743-1.181,3.458-1.862,5.644
		c-0.739,2.275-1.478,4.58-1.92,6.945c-0.237,1.034,0.295,1.951,1.241,2.246l0.389,0.111c0.008,0,0.016,0.001,0.025,0.001v-0.083
		c0.739,0,1.654-0.444,1.802-1.33c0.444-2.038,1.064-4.018,1.891-6.708c0.828-2.541,1.685-5.054,2.541-7.565l0.916-2.866
		l0.355-1.064c0.207-0.591,0.413-1.181,0.562-1.773c0.768-2.985,1.507-5.969,2.216-8.983
		C211.063,362.106,210.531,361.132,209.113,360.836z"/>
	<path style="fill:#161616;" d="M223.179,365.091c-0.797,0-1.536,0.532-1.773,1.33l-0.71,2.63c-0.679,2.423-1.33,4.817-2.039,7.24
		l-0.502,1.743c-0.739,2.541-1.507,5.083-2.157,7.653c-0.237,0.975,0.295,1.951,1.27,2.246l0.473,0.118v-0.059
		c0.828,0,1.536-0.561,1.773-1.359c0.679-2.69,1.478-5.349,2.482-8.746c0.679-2.423,1.359-4.846,2.009-7.298l0.916-3.221
		C225.158,366.391,224.596,365.416,223.179,365.091z"/>
	<path style="fill:#161616;" d="M235.175,367.189c-0.797,0-1.536,0.532-1.773,1.33l-2.512,8.186l-1.773,5.614
		c-1.094,3.576-2.186,7.151-3.074,10.785c-0.237,0.975,0.295,1.951,1.27,2.246l0.443,0.118v-0.059c0.857,0,1.596-0.562,1.803-1.359
		c0.886-3.547,1.951-7.063,3.014-10.579l2.896-9.338l1.448-4.668c0.118-0.413,0.089-0.857-0.118-1.27
		C236.564,367.751,236.121,367.366,235.175,367.189z"/>
	<path style="fill:#161616;" d="M246.582,369.908c-0.295,0-0.591,0.089-0.886,0.237c-0.355,0.237-0.768,0.65-0.797,1.064
		l-0.295,2.038c-0.384,2.512-0.739,5.052-1.181,7.535l-1.862,10.077c-0.237,1.034,0.295,1.92,1.241,2.216l0.473,0.118v-0.059
		c0.71,0,1.596-0.473,1.743-1.3c0.413-2.127,0.828-4.255,1.212-6.382l0.562-3.192c0.621-3.339,1.094-6.679,1.567-10.047
		c0.059-0.562,0.089-0.975-0.148-1.418C247.94,370.381,247.527,370.084,246.582,369.908z"/>
	<path style="fill:#161616;" d="M308.429,376.645c-0.326,0-0.65,0.059-0.946,0.237c-0.355,0.237-0.621,0.561-0.828,1.094
		l-0.561,1.507c-1.685,4.403-3.339,8.806-4.846,13.267c-0.118,0.413-0.089,0.886,0.148,1.3c0.237,0.444,0.68,0.797,1.152,0.946
		l0.502,0.118v-0.06c0.768,0,1.478-0.532,1.743-1.359c1.33-4.048,2.837-8.038,4.344-12.027l1.034-2.748
		c0.148-0.384,0.118-0.797-0.089-1.212C309.847,377.206,309.374,376.852,308.429,376.645z"/>
	<path style="fill:#161616;" d="M318.889,372.361c-0.502,0-1.005,0.207-1.359,0.591c-0.326,0.326-0.473,0.768-0.444,1.212
		c0.029,0.326,0,0.679-0.029,1.123c-0.237,0.975-0.473,1.92-0.739,2.866c-0.326,1.152-0.768,2.304-1.241,3.427
		c-0.532,1.33-1.064,2.63-1.625,3.96c-1.005,2.512-1.98,5.023-2.748,7.624c-0.118,0.444-0.06,0.916,0.177,1.359
		c0.237,0.444,0.65,0.739,1.123,0.886l0.444,0.118v-0.06c0.797,0,1.507-0.561,1.773-1.359c0.797-2.659,1.773-5.201,2.837-7.742
		l0.797-1.98l0.828-2.009c0.591-1.448,1.063-2.896,1.478-4.373c0.177-0.65,0.295-1.27,0.384-1.951c0.148-0.65,0.177-1.3,0.148-1.891
		C320.632,373.129,319.864,372.361,318.889,372.361z"/>
	<path style="fill:#161616;" d="M331.034,377.531c-0.089,0-0.177,0-0.295,0c-0.413,0.148-0.916,0.473-1.094,0.857l-2.926,6.619
		l-0.916,2.009c-1.094,2.512-2.127,5.054-3.161,7.594c-0.177,0.413-0.06,1.005,0.177,1.389c0.237,0.384,0.65,0.71,1.094,0.828
		l0.464,0.137c0.013,0,0.026,0.001,0.039,0.001v-0.078c0.326,0,0.65-0.089,0.916-0.237c0.444-0.266,0.621-0.65,0.828-1.094
		l2.748-6.59c1.27-2.896,2.571-5.822,3.871-8.717c0.207-0.473,0.326-0.916,0.207-1.418c-0.177-0.502-0.473-0.886-0.857-1.094
		C331.891,377.62,331.655,377.531,331.034,377.531z"/>
	<path style="fill:#161616;" d="M340.225,265.45l0.473,0.118v-0.06c0.797,0,1.478-0.532,1.773-1.359l1.951-5.407l1.034-2.688
		l0.886-2.216c0.384-1.034,0.828-2.009,1.27-3.014l0.295-0.71c0.739-1.802,1.478-3.605,2.216-5.378l0.916-2.157l0.326-0.768
		c0.207-0.502,0.326-0.886,0.207-1.389c-0.177-0.502-0.473-0.886-0.857-1.094c-0.207-0.118-0.473-0.207-0.975-0.207
		c-0.118,0-0.266,0-0.413,0c-0.413,0.118-0.916,0.443-1.094,0.828c-1.803,4.255-3.576,8.481-5.319,12.736
		c-1.448,3.458-2.719,7.003-3.96,10.519c-0.118,0.384-0.089,0.828,0.118,1.241C339.308,264.918,339.752,265.302,340.225,265.45z"/>
	<path style="fill:#161616;" d="M351.217,266.632c0.237,0.384,0.65,0.71,1.094,0.828l0.473,0.118v-0.06
		c0.326,0,0.65-0.089,0.916-0.237c0.444-0.295,0.65-0.679,0.857-1.152l2.512-6.206l0.089-0.06h-0.059
		c0.886-2.009,1.802-3.989,2.748-5.969l2.541-5.141l2.571-5.141c0.473-0.946,0.207-1.98-0.65-2.512
		c-0.237-0.148-0.532-0.207-0.916-0.207c-0.679,0-1.3,0.326-1.567,0.857c-1.212,2.393-2.393,4.787-3.576,7.18l-0.591,1.183
		c-0.621,1.183-1.241,2.364-1.773,3.576l-0.975,2.157c-0.444,1.005-0.916,2.039-1.359,3.043c-0.828,2.128-1.685,4.226-2.541,6.324
		C350.862,265.628,351.01,266.248,351.217,266.632z"/>
	<path style="fill:#161616;" d="M371.192,261.638c0.473,0,0.975-0.178,1.3-0.532c0.355-0.384,0.473-0.768,0.502-1.27l0.266-2.364
		l0.237-2.335c0.177-1.98,0.148-3.989,0.059-5.998c-0.059-1.034-0.828-1.803-1.802-1.803c-0.502,0-1.005,0.207-1.359,0.591
		c-0.326,0.326-0.473,0.768-0.444,1.212c0.089,1.625,0.089,3.221,0.029,4.846c-0.06,0.768-0.118,1.536-0.207,2.304
		c-0.118,1.181-0.237,2.364-0.384,3.545c-0.029,0.473,0.237,0.975,0.532,1.27C370.276,261.46,370.719,261.638,371.192,261.638z"/>
	<path style="fill:#161616;" d="M255.092,445.518c0.355-0.384,0.473-0.739,0.473-1.212s-0.148-0.916-0.473-1.212
		c-0.326-0.326-0.768-0.502-1.3-0.502c-0.473,0-0.886,0.148-1.152,0.502l-3.782,4.373c-3.96,4.58-7.92,9.19-11.791,13.918
		c-0.266,0.326-0.473,0.71-0.473,1.241c0,0.473,0.148,0.916,0.473,1.212c0.326,0.326,0.797,0.502,1.3,0.502
		c0.502,0,0.916-0.177,1.152-0.502c3.931-4.817,8.008-9.544,12.115-14.302L255.092,445.518z"/>
	<path style="fill:#161616;" d="M255.535,452.61c-0.444,0-0.797,0.118-1.241,0.502c-1.152,0.916-2.275,1.832-3.398,2.777
		l-1.005,0.916l-0.828,0.768c-0.266,0.266-0.532,0.473-0.768,0.768c-0.975,1.005-1.92,2.039-2.837,3.074
		c-0.916,1.064-1.743,2.157-2.541,3.25c-0.148,0.266-0.237,0.561-0.177,1.212c0.089,0.502,0.384,0.946,0.797,1.212
		c0.326,0.148,0.591,0.207,0.886,0.207c0.591,0,1.183-0.326,1.536-0.828l0.68-1.064c0.532-0.679,1.094-1.359,1.684-2.038
		c0.621-0.71,1.27-1.389,1.92-2.069l0.621-0.679l0.975-0.886l1.478-1.389c0.237-0.207,0.532-0.444,1.478-1.212l1.951-1.596
		c0.384-0.295,0.502-0.828,0.502-1.212c0-0.502-0.177-0.946-0.502-1.212C256.421,452.788,256.008,452.61,255.535,452.61z"/>
	<path style="fill:#161616;" d="M254.914,463.219c-0.758,0-1.363,0.51-1.728,1.393l0.043-0.092
		c-0.014,0.034-0.033,0.064-0.047,0.098c-0.019,0.046-0.055,0.061-0.071,0.109l-0.073,0.194c-0.307,0.711-0.619,1.412-0.991,2.081
		c-0.413,0.739-0.857,1.448-1.33,2.157c-0.237,0.413-0.502,0.797-0.886,1.33l-0.502,0.71l-1.212,1.773l-1.212,1.714l-0.797,1.241
		l-1.094,1.654c-1.123,1.802-2.216,3.634-3.28,5.438c-0.207,0.384-0.266,0.886-0.177,1.33c0.118,0.444,0.413,0.828,0.797,1.094
		c0.237,0.118,0.532,0.177,0.857,0.177c0.621,0,1.181-0.295,1.536-0.797l3.28-5.438c0.561-0.916,1.152-1.802,1.773-2.69l0.502-0.71
		l1.596-2.364c1.714-2.423,3.634-5.141,4.699-8.244c0.118-0.413,0.06-0.828-0.148-1.212
		C256.186,463.662,255.713,463.366,254.914,463.219z"/>
</g>
<g>
</g>
<g>
</g>
<g>
</g>
<g>
</g>
<g>
</g>
<g>
</g>
<g>
</g>
<g>
</g>
<g>
</g>
<g>
</g>
<g>
</g>
<g>
</g>
<g>
</g>
<g>
</g>
<g>
</g>
</svg>
