<?xml version="1.0"?>
<svg xmlns="http://www.w3.org/2000/svg" id="FilledOutline" viewBox="0 0 512 512" width="512" height="512"><path d="M432,456l16-16-7.44-267.88a40,40,0,0,0-17.05-31.66l-57.36-40.15H145.85L88.49,140.46a40,40,0,0,0-17.05,31.66L64,440l16,16Z" style="fill:#ed5749"/><rect x="80" y="456" width="72" height="32" style="fill:#cacac9"/><rect x="360" y="456" width="72" height="32" transform="translate(792 944) rotate(-180)" style="fill:#cacac9"/><path d="M344.57,64.8A41.239,41.239,0,0,0,303.34,24H208.66a41.239,41.239,0,0,0-41.23,40.8V96L256,128l88-32S345.255,65.485,344.57,64.8Z" style="fill:#cacac9"/><path d="M296,312h0a51.776,51.776,0,0,0,28.622,46.311L328,360v8a16,16,0,0,1-16,16H200a16,16,0,0,1-16-16v-8l3.378-1.689A51.776,51.776,0,0,0,216,312h80Z" style="fill:#cacac9"/><path d="M256,128,172.763,67.464A18.114,18.114,0,0,0,162.111,64h0A18.11,18.11,0,0,0,144,82.111V92.338a18.112,18.112,0,0,0,10.616,16.488L232,144Z" style="fill:#d4342f"/><path d="M256,128l83.237-60.536A18.114,18.114,0,0,1,349.889,64h0A18.11,18.11,0,0,1,368,82.111V92.338a18.112,18.112,0,0,1-10.616,16.488L280,144Z" style="fill:#d4342f"/><path d="M456,439.778,448.557,171.9a48.2,48.2,0,0,0-20.46-37.993L375.54,97.117a25.952,25.952,0,0,0,.46-4.779V82.111A26.14,26.14,0,0,0,351.708,56.07,49.387,49.387,0,0,0,303.34,16H208.66a49.387,49.387,0,0,0-48.368,40.07A26.14,26.14,0,0,0,136,82.111V92.338a25.96,25.96,0,0,0,.46,4.779L83.9,133.906A48.2,48.2,0,0,0,63.443,171.9L56,439.778a8,8,0,0,0,2.34,5.879L72,459.313V488a8,8,0,0,0,8,8h72a8,8,0,0,0,8-8V464H352v24a8,8,0,0,0,8,8h72a8,8,0,0,0,8-8V459.313l13.657-13.656A8,8,0,0,0,456,439.778ZM360,82.111V92.338a10.132,10.132,0,0,1-5.927,9.205l-73.335,33.334-10.744-7.163,73.948-53.78A10.111,10.111,0,0,1,360,82.111ZM208.66,32h94.68a33.328,33.328,0,0,1,32.812,27.909c-.55.342-1.092.7-1.62,1.085L320.9,70.91A49.548,49.548,0,0,0,289.66,49.084l-3.32,15.652a33.426,33.426,0,0,1,21.6,15.6L256,118.108,204.064,80.337a33.426,33.426,0,0,1,21.6-15.6l-3.32-15.652A49.548,49.548,0,0,0,191.1,70.91l-13.635-9.916c-.529-.384-1.07-.743-1.62-1.084A33.328,33.328,0,0,1,208.66,32ZM152,82.111a10.11,10.11,0,0,1,16.057-8.177l73.949,53.78-10.744,7.163-73.335-33.334A10.132,10.132,0,0,1,152,92.338Zm-72.563,90.23a32.133,32.133,0,0,1,13.641-25.327l51.075-35.751a25.976,25.976,0,0,0,7.153,4.845L224,149.151V256h16V148.281l16-10.666,16,10.666V256h16V149.151l72.694-33.043a25.976,25.976,0,0,0,7.153-4.845l51.074,35.751a32.131,32.131,0,0,1,13.642,25.328l7.344,264.437L428.687,448H370.246l5.515-22.06A7.977,7.977,0,0,0,376,424V256.878l15.81-71.143-15.62-3.47-9.734,43.805-6.867-20.6-15.178,5.06L360,257.3V416H152V257.3l15.589-46.768-15.178-5.06-6.867,20.6-9.734-43.805-15.62,3.47L136,256.878V424a7.977,7.977,0,0,0,.239,1.94L141.754,448H83.313l-11.22-11.221ZM154.246,432H357.754l-4,16H158.246ZM144,480H88V464h56Zm280,0H368V464h56Z"/><path d="M200,392H312a24.027,24.027,0,0,0,24-24v-8a8,8,0,0,0-4.423-7.156l-3.378-1.688A43.54,43.54,0,0,1,304,312a8,8,0,0,0-8-8H216a8,8,0,0,0-8,8,43.537,43.537,0,0,1-24.2,39.155l-3.378,1.689A8,8,0,0,0,176,360v8A24.027,24.027,0,0,0,200,392Zm-8-27.068A59.387,59.387,0,0,0,223.474,320h65.052A59.387,59.387,0,0,0,320,364.932V368a8.009,8.009,0,0,1-8,8H200a8.009,8.009,0,0,1-8-8Z"/></svg>
