<?xml version="1.0" encoding="iso-8859-1"?>
<!-- Generator: Adobe Illustrator 19.0.0, SVG Export Plug-In . SVG Version: 6.00 Build 0)  -->
<svg version="1.1" id="Capa_1" xmlns="http://www.w3.org/2000/svg" xmlns:xlink="http://www.w3.org/1999/xlink" x="0px" y="0px"
	 viewBox="0 0 499.312 499.312" style="enable-background:new 0 0 499.312 499.312;" xml:space="preserve">
<path d="M129.356,0c-57.344,0-104,46.656-104,104c0,45.6,29.184,84.832,71.264,98.672C82.316,213.024,73.356,229.744,73.356,248
	c0,21.72,12.696,41.24,32,50.44V312h16v-40h16v40h16v-13.56c19.304-9.2,32-28.72,32-50.44c0-18.024-8.84-34.864-23.288-45.32
	c42.088-13.824,71.288-53.064,71.288-98.68C233.356,46.656,186.7,0,129.356,0z M105.356,144v10.528
	c-19.232-9.12-32-28.584-32-50.528c0-30.872,25.12-56,56-56s56,25.128,56,56c0,21.944-12.768,41.408-32,50.528V144H105.356z
	 M137.356,160v48h-16v-48H137.356z M153.356,279.976V256h-48v23.976c-9.872-7.424-16-19.184-16-31.976s6.128-24.552,16-31.976V224
	h48v-7.968c9.96,7.504,16,19.344,16,31.968C169.356,260.792,163.228,272.552,153.356,279.976z M153.356,188.64v-16.744
	c28.552-10.056,48-37.136,48-67.904c0-39.704-32.304-72-72-72s-72,32.296-72,72c0,30.76,19.448,57.84,48,67.904v16.744
	c-37.592-10.544-64-44.72-64-84.64c0-48.52,39.48-88,88-88s88,39.48,88,88C217.356,143.92,190.948,178.096,153.356,188.64z"/>
<path d="M473.356,104c0-57.344-46.656-104-104-104s-104,46.656-104,104c0,45.6,29.184,84.832,71.264,98.672
	c-14.304,10.352-23.264,27.072-23.264,45.328c0,21.72,12.696,41.24,32,50.44v2.248c0,9.432,3.672,18.296,10.336,24.968l11.32-11.312
	c-3.648-3.648-5.656-8.504-5.656-13.656V272h16v28.688c0,5.16-2.008,10.008-5.664,13.656l11.32,11.312
	c6.672-6.672,10.344-15.536,10.344-24.968v-2.248c19.304-9.2,32-28.72,32-50.44c0-18.024-8.84-34.856-23.28-45.32
	C444.164,188.848,473.356,149.608,473.356,104z M393.356,279.976V256h-48v23.976c-9.872-7.424-16-19.184-16-31.976
	s6.128-24.552,16-31.976V224h48v-7.968c9.96,7.504,16,19.344,16,31.968C409.356,260.792,403.228,272.552,393.356,279.976z
	 M361.356,208v-48h16v48H361.356z M393.356,188.64v-16.904c10.376-3.672,19.872-9.576,27.624-17.552l-11.472-11.16
	c-4.68,4.808-10.184,8.6-16.16,11.44V144h-48v10.528c-19.232-9.12-32-28.584-32-50.528c0-30.872,25.12-56,56-56s56,25.128,56,56
	c0,10.144-2.736,20.072-7.912,28.712l13.728,8.216c6.672-11.12,10.192-23.888,10.192-36.928c0-39.704-32.304-72-72-72
	s-72,32.296-72,72c0,30.76,19.448,57.84,48,67.904v16.744c-37.592-10.544-64-44.72-64-84.64c0-48.52,39.48-88,88-88s88,39.48,88,88
	C457.356,143.92,430.948,178.096,393.356,188.64z"/>
<g>
	<path style="fill:#F0BC5E;" d="M129.356,499.312l-83.72-83.72c-13.08-13.08-20.28-30.464-20.28-48.968
		C25.356,332.096,53.452,304,87.98,304h2.752c13.96,0,27.672,4.8,38.624,13.344C140.308,308.8,154.02,304,167.98,304h2.752
		c34.528,0,62.624,28.096,62.624,62.624c0,18.496-7.2,35.888-20.28,48.968L129.356,499.312z"/>
	<path style="fill:#F0BC5E;" d="M434.292,494.968l-64.936-35.888l-64.936,35.888l12.392-75.952l-52.056-53.344l71.976-11
		l32.624-69.504l32.624,69.504l71.976,11L421.9,419.016L434.292,494.968z"/>
</g>
<path d="M66.324,391.032c-5.696-5.696-8.968-13.592-8.968-21.656c0-18.408,14.976-33.376,33.376-33.376
	c8.064,0,15.96,3.264,21.656,8.968l-11.312,11.312c-2.72-2.72-6.496-4.28-10.344-4.28c-9.584,0-17.376,7.8-17.376,17.376
	c0,3.848,1.56,7.624,4.28,10.344L66.324,391.032z"/>
<rect x="337.356" y="384" width="16" height="16"/>
<rect x="145.356" y="408" width="16" height="16"/>
<rect x="161.356" y="336" width="16" height="16"/>
<g>
</g>
<g>
</g>
<g>
</g>
<g>
</g>
<g>
</g>
<g>
</g>
<g>
</g>
<g>
</g>
<g>
</g>
<g>
</g>
<g>
</g>
<g>
</g>
<g>
</g>
<g>
</g>
<g>
</g>
</svg>
