<svg height="512" viewBox="0 0 512 512" width="512" xmlns="http://www.w3.org/2000/svg"><g id="flat"><path d="m208 72h176v112h-176z" fill="#92d1f7"/><path d="m384 165.33v18.67h-176v-11.2l64-44.8 30 35 50-35z" fill="#92d1f7"/><path d="m144 448a8 8 0 0 1 -8-8v-120c0-4.418 3.582 0 8 0s8-4.418 8 0v120a8 8 0 0 1 -8 8z" fill="#422608"/><path d="m464 448a8 8 0 0 1 -8-8v-120c0-4.418 3.582 0 8 0s8-4.418 8 0v120a8 8 0 0 1 -8 8z" fill="#422608"/><path d="m176 328h-40a8 8 0 0 1 0-16h40a8 8 0 0 1 0 16z" fill="#683b0d"/><path d="m472 328h-40a8 8 0 0 1 0-16h40a8 8 0 0 1 0 16z" fill="#683b0d"/><path d="m72 448a8 8 0 0 1 -8-8v-112a8 8 0 0 1 16 0v112a8 8 0 0 1 -8 8z" fill="#422608"/><path d="m72 304a8 8 0 0 1 -8-8v-48a8 8 0 0 1 16 0v48a8 8 0 0 1 -8 8z" fill="#683b0d"/><path d="m32 448a8.007 8.007 0 0 1 -7.7-10.2l32-112a8 8 0 1 1 15.384 4.4l-32 112a8 8 0 0 1 -7.684 5.8z" fill="#533222"/><path d="m112 448a8 8 0 0 1 -7.688-5.8l-32-112a8 8 0 0 1 15.384-4.4l32 112a8.007 8.007 0 0 1 -7.696 10.2z" fill="#533222"/><path d="m32 280a8 8 0 0 1 -8-8v-24a8 8 0 0 1 16 0v24a8 8 0 0 1 -8 8z" fill="#c38325"/><path d="m120 248h-96l16-96h64z" fill="#ea9d2d"/><path d="m48 296h48v32h-48z" fill="#ea9d2d"/><path d="m96 248-16-96h-16l-16 96z" fill="#d18d28"/><path d="m158 352h292a14 14 0 0 1 14 14v34a0 0 0 0 1 0 0h-320a0 0 0 0 1 0 0v-34a14 14 0 0 1 14-14z" fill="#007af6"/><path d="m188 256h232a12 12 0 0 1 12 12v84a0 0 0 0 1 0 0h-256a0 0 0 0 1 0 0v-84a12 12 0 0 1 12-12z" fill="#007af6"/><g fill="#005dbb"><path d="m248 312h-8a8 8 0 0 1 0-16h8a8 8 0 0 1 0 16z"/><path d="m368 312h-8a8 8 0 0 1 0-16h8a8 8 0 0 1 0 16z"/><path d="m296 256h16v96h-16z"/></g><path d="m488 448h-464a8 8 0 0 1 0-16h464a8 8 0 0 1 0 16z" fill="#422509"/><path d="m320 184h-112v-11.2l64-44.8z" fill="#027e2a"/><path d="m384 165.33v18.67h-112l80-56z" fill="#02a437"/><circle cx="312" cy="112" fill="#fd7422" r="16"/><path d="m176 344h256v8h-256z" fill="#005dbb"/><path d="m144 392h320v16h-320z" fill="#422608"/><path d="m384 192h-176a8 8 0 0 1 -8-8v-112a8 8 0 0 1 8-8h176a8 8 0 0 1 8 8v112a8 8 0 0 1 -8 8zm-168-16h160v-96h-160z" fill="#683b0d"/></g></svg>