<?xml version="1.0" encoding="iso-8859-1"?>
<svg xmlns="http://www.w3.org/2000/svg" xmlns:xlink="http://www.w3.org/1999/xlink" version="1.1" id="Layer_1" x="0px" y="0px" viewBox="0 0 512 512" style="enable-background:new 0 0 512 512;" xml:space="preserve">
<g>
	<g>
		<g>
			<path d="M481.659,214.35L440.952,81.674c-0.008-0.024-0.016-0.053-0.025-0.081c-5.244-17.002-19.182-26.505-23.334-29.015     c-0.052-0.031-0.105-0.064-0.157-0.094L341.374,8.824C338.857,7.157,326.826,0,305.838,0h-99.676     c-20.989,0-33.019,7.157-35.536,8.824l-11.332,6.505l-2.058,1.181l-0.001,0.001L94.566,52.486     c-0.052,0.03-0.105,0.061-0.155,0.093c-4.151,2.507-18.086,12.005-23.334,29.007c-0.01,0.029-0.018,0.06-0.028,0.089     L30.341,214.35c-1.259,4.105,0.909,8.477,4.938,9.959l68.195,25.083v34.906v187.622v31.997c0,4.466,3.62,8.084,8.084,8.084     h288.884c4.466,0,8.084-3.618,8.084-8.084v-31.998V345.743c0-4.466-3.619-8.084-8.084-8.084s-8.084,3.619-8.084,8.084v118.091     H201.519c-4.465,0-8.084,3.618-8.084,8.084c0,4.466,3.62,8.084,8.084,8.084h190.839v15.829H119.642v-15.83h53.313     c4.465,0,8.084-3.618,8.084-8.084c0-4.466-3.62-8.084-8.084-8.084h-53.313V284.297v-40.545V207.43v-38.855     c0-4.466-3.62-8.084-8.084-8.084s-8.084,3.619-8.084,8.084v27.162l-45.266-17.088l28.277-92.164     c0.009-0.028,0.018-0.058,0.027-0.086c3.521-11.477,13.184-18.113,16.187-19.939l56.027-32.161     c6.998,9.899,39.615,55.914,50.162,68.439c3.263,3.875,7.633,5.923,12.634,5.924c0.002,0,0.001,0,0.003,0     c2.878,0,5.833-0.743,8.774-1.989v61.818v32.421c0,4.466,3.62,8.084,8.084,8.084h31.998c4.466,0,8.084-3.618,8.084-8.084v-32.421     v-61.819c2.942,1.246,5.897,1.99,8.776,1.99c5.003,0,9.371-2.048,12.637-5.924c11.144-13.237,46.937-63.868,51.095-69.759     l58.327,33.482c3.004,1.828,12.667,8.467,16.187,19.94c0.008,0.023,0.016,0.05,0.025,0.077l28.281,92.174l-45.266,17.088v-27.162     c0-4.466-3.618-8.084-8.084-8.084c-4.466,0-8.084,3.618-8.084,8.084v38.855v36.322V291.9v26.897c0,4.466,3.618,8.084,8.084,8.084     c4.466,0,8.084-3.618,8.084-8.084V291.9v-42.507l68.195-25.083C480.751,222.828,482.918,218.455,481.659,214.35z      M103.474,213.019v19.146l-55.431-20.387l5.412-17.64L103.474,213.019z M301.289,16.168l-46.906,46.929l-46.906-46.929H301.289z      M235.022,83.872c-0.206,0.191-0.413,0.386-0.618,0.572c-0.205,0.186-0.413,0.369-0.62,0.553     c-4.962,4.424-9.571,7.497-12.258,7.497c-0.041-0.001-0.074-0.002-0.095-0.002c-0.005,0-0.011,0-0.015,0     c-0.033-0.029-0.088-0.082-0.162-0.169c-9.622-11.428-40.059-54.266-48.444-66.109l6.123-3.515     c0.191-0.11,0.328-0.195,0.496-0.31c0.024-0.016,0.043-0.028,0.069-0.045c0,0,0.004-0.003,0.005-0.003     c0.068-0.045,2.76-1.796,7.859-3.422l56.115,56.143C241.208,77.671,238.246,80.876,235.022,83.872z M262.298,192.828h-15.83     v-16.253h15.83V192.828z M262.299,160.406h-0.001h-15.83V95.43c2.942-2.74,5.624-5.577,7.916-8.168     c2.292,2.591,4.973,5.427,7.915,8.167V160.406z M287.511,92.322c-0.078,0.093-0.135,0.147-0.147,0.165     c-0.026,0.003-0.068,0.005-0.123,0.005c-2.728,0-7.436-3.163-12.483-7.694c-0.112-0.101-0.226-0.201-0.337-0.302     c-0.282-0.257-0.567-0.524-0.852-0.788c-3.156-2.95-6.053-6.086-8.283-8.649l56.131-56.16c5.098,1.628,7.776,3.393,7.778,3.393     c0.205,0.144,0.418,0.28,0.636,0.405l6.122,3.514C327.57,38.056,297.134,80.894,287.511,92.322z M408.526,232.163v-19.146     l50.019-18.88l5.412,17.639L408.526,232.163z"/>
			<path d="M309.207,160.491c-4.466,0-8.084,3.619-8.084,8.084c0,4.466,3.619,8.084,8.084,8.084h46.349     c4.466,0,8.084-3.618,8.084-8.084c0-4.466-3.619-8.084-8.084-8.084H309.207z"/>
		</g>
	</g>
</g>
</svg>
