<?xml version="1.0" encoding="iso-8859-1"?>
<svg xmlns="http://www.w3.org/2000/svg" xmlns:xlink="http://www.w3.org/1999/xlink" version="1.1" id="Layer_1" x="0px" y="0px" viewBox="0 0 511.999 511.999" style="enable-background:new 0 0 511.999 511.999;" xml:space="preserve">
<g>
	<g>
		<g>
			<path d="M481.29,232.802c-0.234-1.387-5.846-34.382-17.281-70.568c-15.84-50.125-34.685-80.509-56.008-90.307     c-38.592-17.73-71.428-33.008-80.895-37.419c-1.856-4.019-5.143-10.513-9.556-16.788c-0.196-0.28-0.399-0.558-0.6-0.836     c-0.127-0.176-0.25-0.352-0.379-0.527c-4.875-6.657-10.998-12.833-17.966-15.228c-0.066-0.023-0.131-0.047-0.197-0.07     c-0.12-0.04-0.236-0.089-0.357-0.126c-0.096-0.03-0.193-0.042-0.29-0.069C295.965,0.315,294.119,0,292.218,0h-72.438     c-1.901,0-3.749,0.315-5.544,0.863c-0.096,0.026-0.193,0.039-0.288,0.068c-0.12,0.038-0.237,0.087-0.357,0.126     c-0.066,0.023-0.131,0.047-0.197,0.07c-6.969,2.395-13.092,8.571-17.966,15.228c-0.128,0.175-0.252,0.351-0.379,0.527     c-0.201,0.279-0.403,0.557-0.6,0.836c-4.413,6.277-7.699,12.77-9.556,16.788c-9.466,4.41-42.301,19.688-80.894,37.419     c-21.324,9.797-40.169,40.181-56.01,90.307c-11.434,36.185-17.047,69.18-17.281,70.568c-0.679,4.039,1.77,7.948,5.701,9.1     l81.614,23.9v26.625v211.488c0,4.466,3.619,8.084,8.084,8.084h116.984h25.811h116.985c4.466,0,8.084-3.618,8.084-8.084V353.411     c0-4.465-3.619-8.084-8.084-8.084c-4.466,0-8.084,3.62-8.084,8.084V495.83H276.988V98.248c1.417,1.054,3.112,1.599,4.824,1.599     c1.376,0,2.763-0.351,4.017-1.07c26.491-15.18,36.769-34.688,40.73-46.688c13.869,6.451,42.24,19.621,74.69,34.53     c32.624,14.989,55.207,101.593,62.827,141.806l-70.102,20.53v-58.941c0-4.465-3.618-8.084-8.084-8.084     c-4.466,0-8.084,3.62-8.084,8.084v69.732v27.686v37.957c0,4.466,3.618,8.084,8.084,8.084c4.466,0,8.084-3.618,8.084-8.084V287.43     V265.8l81.614-23.9C479.52,240.749,481.969,236.84,481.29,232.802z M235.01,495.83H134.195V292.426h-0.001v-32.681v-69.732     c0-4.465-3.619-8.084-8.084-8.084s-8.084,3.62-8.084,8.084v58.941l-70.104-20.531c7.612-40.208,30.18-126.804,62.829-141.806     c32.45-14.908,60.82-28.078,74.689-34.53c3.962,12,14.239,31.508,40.73,46.688c1.254,0.719,2.639,1.07,4.017,1.07     c1.71,0,3.406-0.544,4.823-1.597V495.83z M229.209,81.683c-23.662-15.513-28.789-34.204-29.837-39.952     c2.002-4.37,4.825-9.52,7.906-14.053c4.231,19.859,22.99,34.45,35.025,41.966L229.209,81.683z M260.82,495.83h-9.643V85.101     c0-0.52-0.054-1.026-0.148-1.519l4.969-4.568l4.821,4.432V495.83z M256,58.919c-9.585-5.289-35.756-21.772-33.12-42.751h66.24     C291.756,37.15,265.577,53.635,256,58.919z M282.791,81.683l-13.094-12.039c12.031-7.515,30.786-22.095,35.022-41.948     c3.076,4.527,5.899,9.67,7.905,14.033C311.558,47.561,306.4,66.204,282.791,81.683z"/>
			<path d="M265.576,22.479h-21.648c-4.466,0-8.084,3.62-8.084,8.084c0,4.466,3.618,8.084,8.084,8.084h21.648     c4.466,0,8.084-3.62,8.084-8.084C273.66,26.099,270.042,22.479,265.576,22.479z"/>
			<path d="M302.501,173.147c-4.466,0-8.084,3.62-8.084,8.084c0,4.465,3.618,8.084,8.084,8.084h47.427     c4.466,0,8.084-3.62,8.084-8.084c0-4.465-3.618-8.084-8.084-8.084H302.501z"/>
		</g>
	</g>
</g>
</svg>
