<svg id="Capa_1" enable-background="new 0 0 512 512" height="512" viewBox="0 0 512 512" width="512" xmlns="http://www.w3.org/2000/svg"><g><g><g><path d="m276 512c-6.883 0-12.883-4.685-14.552-11.362l-25-100c-1.121-4.48-.114-9.229 2.729-12.869s7.204-5.769 11.823-5.769h50c4.619 0 8.98 2.128 11.823 5.769s3.85 8.389 2.729 12.869l-25 100c-1.669 6.677-7.669 11.362-14.552 11.362z" fill="#ffd6aa"/><path d="m290.552 500.638 25-100c1.121-4.48.114-9.229-2.729-12.869s-7.204-5.769-11.823-5.769h-25v130c6.883 0 12.883-4.685 14.552-11.362z" fill="#fac68f"/><path d="m236 92v45c0 8.284 6.716 15 15 15h50c8.284 0 15-6.716 15-15v-45c0-8.284-6.716-15-15-15h-50c-8.285 0-15 6.716-15 15z" fill="#f2faff"/><g><path d="m316 137v-45c0-8.284-6.716-15-15-15h-25v75h25c8.284 0 15-6.716 15-15z" fill="#c8eafa"/></g><path d="m316 92h-80v-52c0-22.091 17.909-40 40-40 22.091 0 40 17.909 40 40z" fill="#ff5e82"/></g><path d="m236 137h80v260h-80z" fill="#bc8173"/><g><g><path d="m316 40c0-22.091-17.909-40-40-40v92h40z" fill="#b7457d"/><path d="m276 137h40v260h-40z" fill="#9d5e4a"/></g></g></g><g><path d="m151 412h-120c-7.643 0-14.064-5.747-14.908-13.344l-5.361-48.254c-3.14-28.246-4.731-56.981-4.731-85.406 0-39.244 3.026-78.811 8.993-117.6l11.181-72.678c1.126-7.317 7.423-12.718 14.826-12.718h100c7.403 0 13.7 5.401 14.826 12.719l11.181 72.678c5.967 38.789 8.993 78.355 8.993 117.6 0 28.425-1.591 57.16-4.73 85.406l-5.361 48.254c-.845 7.596-7.266 13.343-14.909 13.343z" fill="#ffe67a"/><g><path d="m167.007 147.396-11.181-72.678c-1.126-7.317-7.423-12.718-14.826-12.718h-50v350h60c7.643 0 14.064-5.747 14.908-13.344l5.361-48.254c3.139-28.246 4.73-56.981 4.73-85.406.001-39.244-3.025-78.81-8.992-117.6z" fill="#ffc336"/></g><path d="m91 352c-8.284 0-15-6.716-15-15v-120c0-8.284 6.716-15 15-15s15 6.716 15 15v120c0 8.284-6.716 15-15 15z" fill="#ffc336"/><path d="m16.317 400.068 16.759 83.796c3.26 16.303 17.694 28.136 34.32 28.136h47.208c16.626 0 31.06-11.833 34.32-28.137l16.759-83.796h-149.366z" fill="#5e54ac"/><path d="m111 0h-40c-24.813 0-45 20.187-45 45v30.852h130v-30.852c0-24.813-20.187-45-45-45z" fill="#5e54ac"/><g><g><path d="m106 337v-120c0-8.284-6.716-15-15-15v150c8.284 0 15-6.716 15-15z" fill="#f09b00"/><g fill="#453d81"><path d="m91 400.068v111.932h23.604c16.626 0 31.06-11.833 34.32-28.137l16.759-83.796h-74.683z"/><path d="m156 45c0-24.813-20.187-45-45-45h-20v75.852h65z"/></g></g></g></g><g><g><path d="m466 0c-22.091 0-40 17.909-40 40v47h60l20-15v-32c0-22.091-17.909-40-40-40z" fill="#a4e9ff"/><g><path d="m466 0v87h20l20-15v-32c0-22.091-17.909-40-40-40z" fill="#91bbff"/></g><path d="m426 87v274.099c0 38.888 9.192 77.827 26.583 112.609 2.542 5.082 7.735 8.292 13.417 8.292s10.875-3.21 13.417-8.292c17.391-34.782 26.583-73.722 26.583-112.609v-259.099l-20-15z" fill="#a4e9ff"/><g><path d="m486 87h-20v395c5.682 0 10.875-3.21 13.417-8.292 17.391-34.782 26.583-73.722 26.583-112.609v-259.099z" fill="#91bbff"/></g><path d="m421 72c-24.813 0-45 20.187-45 45v130c0 8.284 6.716 15 15 15s15-6.716 15-15v-130c0-8.271 6.729-15 15-15h85v-30z" fill="#5e54ac"/><path d="m451 470.421v26.579c0 8.284 6.716 15 15 15s15-6.716 15-15v-26.579z" fill="#f2faff"/></g><g><path d="m466 470.421v41.579c8.284 0 15-6.716 15-15v-26.579z" fill="#c8eafa"/></g><g><path d="m466 72h40v30h-40z" fill="#453d81"/></g></g></g></svg>