<?xml version="1.0" encoding="iso-8859-1"?>
<!-- Generator: Adobe Illustrator 19.0.0, SVG Export Plug-In . SVG Version: 6.00 Build 0)  -->
<svg version="1.1" id="Capa_1" xmlns="http://www.w3.org/2000/svg" xmlns:xlink="http://www.w3.org/1999/xlink" x="0px" y="0px"
	 viewBox="0 0 480 480" style="enable-background:new 0 0 480 480;" xml:space="preserve">
<path style="fill:#DC5B4D;" d="M264,336l16-112V88H56v136l16,112v112h192V336z"/>
<path style="fill:#5192A9;" d="M280,64v32h56c35.346,0,64,28.654,64,64v6.464c-0.001,47.085-18.706,92.241-52,125.536
	c-6.624,6.629-6.624,17.371,0,24c6.629,6.624,17.371,6.624,24,0c38.418-38.418,60-90.525,60-144.856V160c0-53.019-42.981-96-96-96
	H280z"/>
<path style="fill:#DC5B4D;" d="M72,8h192c8.837,0,16,7.163,16,16v40H56V24C56,15.163,63.163,8,72,8z"/>
<path style="fill:#427C9D;" d="M48,56h240v48H48V56z"/>
<path style="fill:#5192A9;" d="M72,440v16c0,8.837,7.163,16,16,16h160c8.837,0,16-7.163,16-16v-16H72z"/>
<path d="M336,56h-40c0-4.418-3.582-8-8-8V24c0-13.255-10.745-24-24-24H72C58.745,0,48,10.745,48,24v24c-4.418,0-8,3.582-8,8v48
	c0,4.418,3.582,8,8,8v112c-0.001,0.38,0.026,0.76,0.08,1.136L64,336.568V456c0,13.255,10.745,24,24,24h160c13.255,0,24-10.745,24-24
	V336.568l15.92-111.432c0.054-0.376,0.081-0.756,0.08-1.136V112c4.418,0,8-3.582,8-8h40c30.911,0.04,55.96,25.089,56,56v6.464
	c0.124,44.988-17.757,88.156-49.656,119.88c-9.751,9.751-9.751,25.561,0,35.312s25.561,9.751,35.312,0
	c40.047-39.829,62.496-94.023,62.344-150.504V160C439.933,102.59,393.41,56.066,336,56z M56,64h224v32H56V64z M64,24
	c0-4.418,3.582-8,8-8h192c4.418,0,8,3.582,8,8v24H64V24z M256,456c0,4.418-3.582,8-8,8H88c-4.418,0-8-3.582-8-8v-8h176V456z
	 M272,223.432l-15.92,111.432c-0.054,0.376-0.081,0.756-0.08,1.136v96H80v-96c0.001-0.38-0.026-0.76-0.08-1.136L64,223.432V112h208
	V223.432z M424,171.152c0.143,52.238-20.618,102.362-57.656,139.2c-3.504,3.504-9.184,3.504-12.688,0s-3.504-9.184,0-12.688
	c34.913-34.719,54.482-81.963,54.344-131.2V160c-0.044-39.746-32.254-71.956-72-72h-40V72h40c48.577,0.057,87.943,39.423,88,88
	V171.152z"/>
<path d="M248,168c-4.418,0-8,3.582-8,8v47.432l-2.208,15.432c-0.627,4.374,2.41,8.429,6.784,9.056
	c4.374,0.627,8.429-2.41,9.056-6.784l2.288-16c0.055-0.376,0.081-0.756,0.08-1.136v-48C256,171.582,252.418,168,248,168L248,168z"/>
<path d="M242.272,264.08c-4.367-0.6-8.405,2.424-9.056,6.784l-1.136,8c-0.627,4.374,2.41,8.429,6.784,9.056
	c4.374,0.627,8.429-2.41,9.056-6.784l1.144-8c0.627-4.374-2.41-8.427-6.783-9.055C242.278,264.081,242.275,264.08,242.272,264.08
	L242.272,264.08z"/>
<g>
</g>
<g>
</g>
<g>
</g>
<g>
</g>
<g>
</g>
<g>
</g>
<g>
</g>
<g>
</g>
<g>
</g>
<g>
</g>
<g>
</g>
<g>
</g>
<g>
</g>
<g>
</g>
<g>
</g>
</svg>
